<svg width="260" height="260" viewBox="0 0 260 260" fill="none" xmlns="http://www.w3.org/2000/svg">
<mask id="path-1-inside-1_0_356" fill="white">
<path d="M0 130C0 201.797 58.203 260 130 260C201.797 260 260 201.797 260 130C260 58.203 201.797 0 130 0"/>
</mask>
<path d="M-1 130C-1 202.349 57.6507 261 130 261V259C58.7553 259 1 201.245 1 130H-1ZM130 261C202.349 261 261 202.349 261 130H259C259 201.245 201.245 259 130 259V261ZM261 130C261 57.6507 202.349 -1 130 -1V1C201.245 1 259 58.7553 259 130H261Z" fill="#6E38F7" mask="url(#path-1-inside-1_0_356)"/>
</svg>
