<svg width="96" height="102" viewBox="0 0 96 102" fill="none" xmlns="http://www.w3.org/2000/svg">
<g clip-path="url(#clip0_30_11082)">
<path d="M39.3453 41.0249C39.3608 41.0374 39.3734 41.0531 39.3823 41.0709C39.3911 41.0887 39.3962 41.1082 39.397 41.128L40.0369 47.8978C40.13 48.9332 40.6083 49.8961 41.3774 50.596C42.1465 51.2959 43.1503 51.6819 44.1905 51.6778H51.8163C52.8564 51.6819 53.8602 51.2959 54.6293 50.596C55.3984 49.8961 55.8768 48.9332 55.9698 47.8978L56.6098 41.126C56.6115 41.1056 56.6174 41.0858 56.627 41.0677C56.6365 41.0496 56.6496 41.0337 56.6655 41.0208C58.815 39.2401 60.3626 36.8401 61.0971 34.148C61.8317 31.4559 61.7174 28.6029 60.7698 25.9781C59.8223 23.3533 58.0876 21.0846 55.8025 19.4815C53.5174 17.8784 50.7931 17.0189 48.0013 17.0203H47.9518C45.1639 17.0297 42.4466 17.8974 40.1696 19.5051C37.8926 21.1129 36.1664 23.3828 35.2259 26.0059C34.2855 28.629 34.1763 31.4781 34.9134 34.1654C35.6505 36.8527 37.198 39.2478 39.3453 41.0249ZM37.3656 30.2234C37.5514 24.5761 42.3057 19.9646 47.9641 19.946H48.0013C50.1908 19.9465 52.3268 20.6218 54.1183 21.8799C55.9097 23.138 57.2694 24.9176 58.012 26.9762C58.7546 29.0348 58.844 31.2722 58.268 33.3834C57.6919 35.4947 56.4785 37.377 54.7931 38.7738C54.481 39.0305 54.2229 39.3465 54.0337 39.7035C53.8445 40.0604 53.7279 40.4514 53.6907 40.8536L53.0549 47.6254C53.027 47.9341 52.8843 48.2211 52.655 48.4296C52.4256 48.6382 52.1264 48.7533 51.8163 48.752H44.1905C43.8801 48.7532 43.5805 48.6379 43.3511 48.4289C43.1217 48.2199 42.9792 47.9324 42.9518 47.6234L42.3201 40.8536C42.2832 40.4515 42.167 40.0607 41.9781 39.7037C41.7892 39.3467 41.5315 39.0307 41.2198 38.7738C39.9633 37.7403 38.962 36.4314 38.2936 34.9485C37.6252 33.4657 37.3076 31.8488 37.3656 30.2234Z" fill="#4F4F4F"/>
<path d="M39.5189 29.8088C39.5664 29.8186 39.6149 29.8234 39.6634 29.8232C39.8323 29.8227 39.9959 29.7639 40.1264 29.6568C40.257 29.5496 40.3465 29.4007 40.3798 29.2352C40.7926 27.2028 42.0127 24.5452 45.5614 23.4228C45.6575 23.3977 45.7476 23.3533 45.8261 23.2923C45.9046 23.2314 45.9698 23.1551 46.0179 23.0681C46.0659 22.9811 46.0958 22.8853 46.1056 22.7864C46.1154 22.6875 46.105 22.5877 46.075 22.493C46.045 22.3983 45.996 22.3106 45.9311 22.2354C45.8661 22.1602 45.7865 22.099 45.6972 22.0555C45.6078 22.012 45.5105 21.9871 45.4112 21.9824C45.3119 21.9777 45.2127 21.9932 45.1196 22.028C41.8166 23.072 39.6283 25.5356 38.945 28.9484C38.9261 29.0425 38.9259 29.1395 38.9445 29.2337C38.9631 29.328 39.0001 29.4176 39.0534 29.4975C39.1067 29.5775 39.1753 29.6461 39.2551 29.6995C39.335 29.7529 39.4247 29.79 39.5189 29.8088Z" fill="#4F4F4F"/>
<path d="M95.9938 42.7994L70.3191 0H25.6809L19.8181 9.77392V6.5242H9.40946V27.1182L0 42.7994H8.23689L13.3215 83.7252H42.708C43.0864 83.711 43.4445 83.5508 43.7072 83.2782C43.9699 83.0056 44.1166 82.6418 44.1166 82.2634C44.1166 81.8849 43.9699 81.5211 43.7072 81.2485C43.4445 80.9759 43.0864 80.8157 42.708 80.8015H15.9061L11.1848 42.7994H35.3526C35.5493 42.8067 35.7454 42.7744 35.9293 42.7043C36.1132 42.6341 36.2811 42.5276 36.4229 42.3912C36.5646 42.2547 36.6774 42.091 36.7544 41.91C36.8315 41.7289 36.8712 41.5342 36.8712 41.3375C36.8712 41.1408 36.8315 40.946 36.7544 40.765C36.6774 40.584 36.5646 40.4203 36.4229 40.2838C36.2811 40.1474 36.1132 40.0409 35.9293 39.9707C35.7454 39.9006 35.5493 39.8682 35.3526 39.8756H5.16096L27.3386 2.92372H68.6614L90.8329 39.8756H60.6454C60.267 39.8898 59.9088 40.0501 59.6461 40.3227C59.3834 40.5953 59.2367 40.959 59.2367 41.3375C59.2367 41.716 59.3834 42.0797 59.6461 42.3523C59.9088 42.6249 60.267 42.7851 60.6454 42.7994H68.8286V47.0642C68.6236 47.1893 68.4542 47.365 68.3367 47.5744C68.2191 47.7838 68.1574 48.0198 68.1574 48.2599C68.1574 48.5 68.2191 48.736 68.3367 48.9454C68.4542 49.1548 68.6236 49.3305 68.8286 49.4556V52.5898C68.6236 52.7149 68.4542 52.8906 68.3367 53.1C68.2191 53.3093 68.1574 53.5454 68.1574 53.7855C68.1574 54.0256 68.2191 54.2616 68.3367 54.471C68.4542 54.6804 68.6236 54.856 68.8286 54.9812V58.1174C68.5668 58.2769 68.3644 58.5176 68.2522 58.8028C68.1399 59.0879 68.124 59.402 68.2069 59.697C68.2898 59.992 68.4669 60.2519 68.7113 60.437C68.9556 60.6221 69.2538 60.7222 69.5604 60.7222C69.867 60.7222 70.1652 60.6221 70.4096 60.437C70.6539 60.2519 70.831 59.992 70.9139 59.697C70.9968 59.402 70.9809 59.0879 70.8687 58.8028C70.7565 58.5176 70.554 58.2769 70.2922 58.1174V54.9812C70.4977 54.8564 70.6676 54.6809 70.7855 54.4715C70.9034 54.262 70.9653 54.0258 70.9653 53.7855C70.9653 53.5452 70.9034 53.3089 70.7855 53.0995C70.6676 52.8901 70.4977 52.7145 70.2922 52.5898V49.4556C70.4977 49.3309 70.6676 49.1553 70.7855 48.9459C70.9034 48.7365 70.9653 48.5002 70.9653 48.2599C70.9653 48.0196 70.9034 47.7834 70.7855 47.5739C70.6676 47.3645 70.4977 47.189 70.2922 47.0642V42.7994H84.8131L80.0981 80.8015H53.292C53.0953 80.7941 52.8992 80.8264 52.7153 80.8966C52.5314 80.9667 52.3635 81.0732 52.2217 81.2097C52.08 81.3462 51.9672 81.5098 51.8902 81.6909C51.8131 81.8719 51.7734 82.0666 51.7734 82.2634C51.7734 82.4601 51.8131 82.6548 51.8902 82.8358C51.9672 83.0169 52.08 83.1805 52.2217 83.317C52.3635 83.4535 52.5314 83.56 52.7153 83.6301C52.8992 83.7003 53.0953 83.7326 53.292 83.7252H82.6785L87.761 42.7994H95.9938ZM12.3347 9.44792H16.8908V14.6495L12.3347 22.2405V9.44792Z" fill="#4F4F4F"/>
<path d="M46.5372 64.7345V88.4626C46.5298 88.6592 46.5621 88.8553 46.6323 89.0391C46.7025 89.2229 46.809 89.3907 46.9456 89.5324C47.0821 89.6741 47.2459 89.7868 47.427 89.8638C47.6081 89.9408 47.8029 89.9804 47.9998 89.9804C48.1966 89.9804 48.3914 89.9408 48.5726 89.8638C48.7537 89.7868 48.9174 89.6741 49.054 89.5324C49.1905 89.3907 49.2971 89.2229 49.3673 89.0391C49.4374 88.8553 49.4698 88.6592 49.4624 88.4626V64.7345C49.4698 64.5379 49.4374 64.3418 49.3673 64.158C49.2971 63.9742 49.1905 63.8065 49.054 63.6648C48.9174 63.5231 48.7537 63.4103 48.5726 63.3333C48.3914 63.2564 48.1966 63.2167 47.9998 63.2167C47.8029 63.2167 47.6081 63.2564 47.427 63.3333C47.2459 63.4103 47.0821 63.5231 46.9456 63.6648C46.809 63.8065 46.7025 63.9742 46.6323 64.158C46.5621 64.3418 46.5298 64.5379 46.5372 64.7345Z" fill="#4F4F4F"/>
<path d="M42.6196 56.5162H53.3813C53.7597 56.502 54.1178 56.3418 54.3805 56.0692C54.6432 55.7966 54.7899 55.4329 54.7899 55.0544C54.7899 54.6759 54.6432 54.3122 54.3805 54.0396C54.1178 53.767 53.7597 53.6067 53.3813 53.5925H42.6196C42.2412 53.6067 41.8831 53.767 41.6204 54.0396C41.3577 54.3122 41.2109 54.6759 41.2109 55.0544C41.2109 55.4329 41.3577 55.7966 41.6204 56.0692C41.8831 56.3418 42.2412 56.502 42.6196 56.5162Z" fill="#4F4F4F"/>
<path d="M44.5017 61.3568H51.4959C51.6926 61.3642 51.8887 61.3319 52.0726 61.2617C52.2565 61.1916 52.4244 61.0851 52.5662 60.9486C52.7079 60.8121 52.8207 60.6485 52.8977 60.4674C52.9748 60.2864 53.0145 60.0917 53.0145 59.895C53.0145 59.6982 52.9748 59.5035 52.8977 59.3225C52.8207 59.1414 52.7079 58.9778 52.5662 58.8413C52.4244 58.7048 52.2565 58.5983 52.0726 58.5282C51.8887 58.4581 51.6926 58.4257 51.4959 58.4331H44.5017C44.1136 58.4331 43.7413 58.5872 43.4668 58.8616C43.1923 59.1359 43.0381 59.508 43.0381 59.896C43.0381 60.284 43.1923 60.6561 43.4668 60.9304C43.7413 61.2048 44.1136 61.3589 44.5017 61.3589V61.3568Z" fill="#4F4F4F"/>
<path d="M63.4629 33.599C63.3896 33.9796 63.4704 34.3736 63.6875 34.6947C63.9047 35.0158 64.2404 35.2376 64.621 35.3115L68.8468 36.1369C69.2263 36.2069 69.6181 36.1244 69.937 35.9071C70.2559 35.6899 70.4761 35.3555 70.5496 34.9769C70.623 34.5982 70.5439 34.2059 70.3294 33.8852C70.1149 33.5646 69.7824 33.3416 69.4042 33.2647L65.1784 32.4394C64.7971 32.3662 64.4023 32.4471 64.0807 32.6645C63.7591 32.882 63.5369 33.218 63.4629 33.599Z" fill="#4F4F4F"/>
<path d="M67.3936 21.1408L63.4052 22.7584C63.0828 22.8804 62.8138 23.1123 62.646 23.4133C62.4781 23.7142 62.422 24.0648 62.4877 24.4031C62.5534 24.7414 62.7367 25.0455 63.005 25.2618C63.2734 25.4781 63.6096 25.5926 63.9543 25.5851C64.1427 25.5859 64.3293 25.5494 64.5035 25.4778L68.4939 23.8623C68.8519 23.7153 69.1372 23.4325 69.2871 23.0759C69.4371 22.7192 69.4396 22.3177 69.2941 21.9592C69.1486 21.6007 68.8669 21.3144 68.5108 21.163C68.1546 21.0115 67.7529 21.0072 67.3936 21.1511V21.1408Z" fill="#4F4F4F"/>
<path d="M57.4688 17.6764C57.7113 17.6772 57.9502 17.6176 58.1639 17.503C58.3776 17.3885 58.5594 17.2226 58.693 17.0203L61.0629 13.4301C61.254 13.1077 61.3138 12.7243 61.23 12.359C61.1462 11.9937 60.9252 11.6747 60.6126 11.4677C60.3 11.2608 59.9198 11.1818 59.5506 11.2471C59.1814 11.3124 58.8515 11.5171 58.629 11.8187L56.257 15.4089C56.1509 15.5689 56.0773 15.7484 56.0406 15.9369C56.0039 16.1254 56.0047 16.3193 56.0431 16.5075C56.0814 16.6957 56.1565 16.8745 56.2641 17.0337C56.3716 17.1928 56.5095 17.3292 56.6699 17.435C56.9067 17.5923 57.1845 17.6763 57.4688 17.6764Z" fill="#4F4F4F"/>
<path d="M49.4624 13.3826V9.07855C49.4698 8.88196 49.4374 8.68589 49.3673 8.50208C49.2971 8.31828 49.1905 8.15051 49.054 8.00881C48.9174 7.86711 48.7537 7.75439 48.5726 7.6774C48.3914 7.60041 48.1966 7.56073 47.9998 7.56073C47.8029 7.56073 47.6081 7.60041 47.427 7.6774C47.2459 7.75439 47.0821 7.86711 46.9456 8.00881C46.809 8.15051 46.7025 8.31828 46.6323 8.50208C46.5621 8.68589 46.5298 8.88196 46.5372 9.07855V13.3826C46.5514 13.7608 46.7117 14.1188 46.9844 14.3814C47.2572 14.6439 47.6211 14.7906 47.9998 14.7906C48.3785 14.7906 48.7424 14.6439 49.0151 14.3814C49.2879 14.1188 49.4482 13.7608 49.4624 13.3826Z" fill="#4F4F4F"/>
<path d="M38.53 17.6785C38.7941 17.6776 39.0531 17.6055 39.2795 17.4696C39.5059 17.3338 39.6915 17.1394 39.8165 16.9069C39.9414 16.6744 40.0013 16.4124 39.9896 16.1487C39.9779 15.885 39.8951 15.6294 39.7501 15.4088L37.3781 11.8207C37.1579 11.5128 36.8269 11.3021 36.4547 11.233C36.0824 11.1639 35.6977 11.2416 35.3816 11.45C35.0655 11.6583 34.8424 11.981 34.7593 12.3502C34.6762 12.7195 34.7395 13.1065 34.9359 13.4301L37.3079 17.0203C37.4409 17.2228 37.6223 17.389 37.8357 17.5039C38.049 17.6188 38.2877 17.6788 38.53 17.6785Z" fill="#4F4F4F"/>
<path d="M33.4 24.6628C33.4724 24.485 33.509 24.2946 33.5077 24.1026C33.5064 23.9105 33.4672 23.7207 33.3925 23.5438C33.3177 23.3669 33.2087 23.2065 33.0719 23.0717C32.935 22.937 32.7729 22.8305 32.5949 22.7584L28.6065 21.1408C28.2471 20.9969 27.8455 21.0012 27.4893 21.1527C27.1331 21.3041 26.8515 21.5904 26.706 21.9489C26.5605 22.3074 26.563 22.7089 26.7129 23.0655C26.8629 23.4222 27.1481 23.705 27.5062 23.852L31.4945 25.4675C31.6688 25.5387 31.8554 25.5752 32.0437 25.5748C32.3349 25.5752 32.6196 25.4886 32.8613 25.3261C33.103 25.1636 33.2905 24.9326 33.4 24.6628Z" fill="#4F4F4F"/>
<path d="M30.8216 32.4415L26.5958 33.2668C26.2387 33.3361 25.9203 33.5358 25.7025 33.827C25.4847 34.1181 25.3832 34.4799 25.4177 34.8418C25.4523 35.2037 25.6204 35.5398 25.8893 35.7845C26.1582 36.0293 26.5087 36.1652 26.8724 36.1658C26.966 36.1661 27.0593 36.1571 27.1511 36.139L31.3769 35.3137C31.7577 35.2401 32.0936 35.0183 32.3108 34.6971C32.528 34.3759 32.6087 33.9817 32.535 33.6011C32.4614 33.2205 32.2395 32.8847 31.9182 32.6677C31.5968 32.4506 31.2024 32.37 30.8216 32.4436V32.4415Z" fill="#4F4F4F"/>
<path d="M52.3878 86.2589C52.0952 86.5137 51.9159 86.8742 51.8892 87.2611C51.8625 87.648 51.9906 88.0297 52.2453 88.3222L61.6073 99.0742H34.3926L43.7649 88.3222C43.8909 88.1774 43.9872 88.0092 44.0482 87.8272C44.1092 87.6451 44.1338 87.4529 44.1204 87.2614C44.1071 87.0699 44.0562 86.8829 43.9706 86.7111C43.8849 86.5392 43.7663 86.386 43.6214 86.26C43.4765 86.134 43.3082 86.0377 43.126 85.9767C42.9439 85.9158 42.7516 85.8912 42.56 85.9045C42.3684 85.9179 42.1813 85.9688 42.0094 86.0544C41.8375 86.1399 41.6841 86.2585 41.558 86.4034L27.9785 102H68.0296L54.4522 86.4034C54.3262 86.2582 54.1729 86.1393 54.0009 86.0534C53.8289 85.9676 53.6417 85.9165 53.45 85.9031C53.2582 85.8897 53.0657 85.9142 52.8834 85.9753C52.7011 86.0363 52.5327 86.1327 52.3878 86.2589Z" fill="#4F4F4F"/>
<path d="M71.0151 67.7345V63.3706C71.0225 63.174 70.9902 62.9779 70.92 62.7941C70.8498 62.6103 70.7433 62.4426 70.6067 62.3009C70.4702 62.1592 70.3064 62.0464 70.1253 61.9695C69.9442 61.8925 69.7494 61.8528 69.5525 61.8528C69.3557 61.8528 69.1609 61.8925 68.9797 61.9695C68.7986 62.0464 68.6349 62.1592 68.4983 62.3009C68.3618 62.4426 68.2552 62.6103 68.185 62.7941C68.1149 62.9779 68.0825 63.174 68.0899 63.3706V67.7345C68.0825 67.9311 68.1149 68.1272 68.185 68.311C68.2552 68.4948 68.3618 68.6626 68.4983 68.8043C68.6349 68.946 68.7986 69.0587 68.9797 69.1357C69.1609 69.2127 69.3557 69.2523 69.5525 69.2523C69.7494 69.2523 69.9442 69.2127 70.1253 69.1357C70.3064 69.0587 70.4702 68.946 70.6067 68.8043C70.7433 68.6626 70.8498 68.4948 70.92 68.311C70.9902 68.1272 71.0225 67.9311 71.0151 67.7345Z" fill="#4F4F4F"/>
<path d="M39.5189 30.9374C39.3252 30.9379 39.1397 31.015 39.0027 31.1519C38.8658 31.2888 38.7886 31.4742 38.7881 31.6678V31.6905C38.798 31.8778 38.8795 32.0541 39.0156 32.1831C39.1518 32.3122 39.3323 32.3841 39.5199 32.3841C39.7075 32.3841 39.888 32.3122 40.0242 32.1831C40.1603 32.0541 40.2418 31.8778 40.2517 31.6905V31.6678C40.2512 31.4739 40.1737 31.2881 40.0364 31.1512C39.899 31.0143 39.7129 30.9374 39.5189 30.9374Z" fill="#4F4F4F"/>
</g>
<defs>
<clipPath id="clip0_30_11082">
<rect width="96" height="102" fill="white"/>
</clipPath>
</defs>
</svg>
