<svg width="18" height="18" viewBox="0 0 18 18" fill="none" xmlns="http://www.w3.org/2000/svg">
<path fill-rule="evenodd" clip-rule="evenodd" d="M0.667969 8.99935C0.667969 4.39935 4.39297 0.666016 8.99297 0.666016C13.6013 0.666016 17.3346 4.39935 17.3346 8.99935C17.3346 13.5993 13.6013 17.3327 8.99297 17.3327C4.39297 17.3327 0.667969 13.5993 0.667969 8.99935ZM12.3096 5.66602H14.768C13.968 4.29103 12.693 3.22436 11.1596 2.69936C11.6596 3.62436 12.043 4.62436 12.3096 5.66602ZM9.0013 2.36601C9.69297 3.36601 10.2346 4.47434 10.593 5.66601H7.40964C7.76797 4.47434 8.30964 3.36601 9.0013 2.36601ZM2.33464 8.99935C2.33464 9.57435 2.41797 10.1327 2.5513 10.666H5.36797C5.3013 10.116 5.2513 9.56602 5.2513 8.99935C5.2513 8.43268 5.3013 7.88268 5.36797 7.33268H2.5513C2.41797 7.86601 2.33464 8.42435 2.33464 8.99935ZM3.23464 12.3327H5.69297C5.95964 13.3743 6.34297 14.3743 6.84297 15.2993C5.30964 14.7743 4.03464 13.716 3.23464 12.3327ZM3.23464 5.66602H5.69297C5.95964 4.62436 6.34297 3.62436 6.84297 2.69936C5.30964 3.22436 4.03464 4.28269 3.23464 5.66602ZM9.0013 15.6327C8.30964 14.6327 7.76797 13.5243 7.40964 12.3327H10.593C10.2346 13.5243 9.69297 14.6327 9.0013 15.6327ZM6.91797 8.99935C6.91797 9.56602 6.9763 10.116 7.0513 10.666H10.9513C11.0263 10.116 11.0846 9.56602 11.0846 8.99935C11.0846 8.43268 11.0263 7.87435 10.9513 7.33268H7.0513C6.9763 7.87435 6.91797 8.43268 6.91797 8.99935ZM11.1596 15.2993C11.6596 14.3743 12.043 13.3743 12.3096 12.3327H14.768C13.968 13.7077 12.693 14.7743 11.1596 15.2993ZM12.7513 8.99935C12.7513 9.56602 12.7013 10.116 12.6346 10.666H15.4513C15.5846 10.1327 15.668 9.57435 15.668 8.99935C15.668 8.42435 15.5846 7.86601 15.4513 7.33268H12.6346C12.7013 7.88268 12.7513 8.43268 12.7513 8.99935Z" fill="#6E38F7"/>
</svg>
