<svg width="18" height="18" viewBox="0 0 18 18" fill="none" xmlns="http://www.w3.org/2000/svg">
<path d="M11.7467 17.3327V11.3116H13.9907L14.3267 8.70609H11.7467V7.04262C11.7467 6.28826 11.9561 5.77418 13.0379 5.77418L14.4176 5.77358V3.44317C14.179 3.41142 13.36 3.34048 12.4071 3.34048C10.4179 3.34048 9.05599 4.55472 9.05599 6.78458V8.70609H6.80617V11.3116H9.05599V17.3327H2.66797C1.5634 17.3327 0.667969 16.4373 0.667969 15.3327L0.667969 2.66601C0.667969 1.56145 1.5634 0.666016 2.66797 0.666016L15.3346 0.666016C16.4392 0.666016 17.3346 1.56145 17.3346 2.66602V15.3327C17.3346 16.4373 16.4392 17.3327 15.3346 17.3327H11.7467Z" fill="#6E38F7"/>
</svg>
