<svg width="20" height="17" viewBox="0 0 20 17" fill="none" xmlns="http://www.w3.org/2000/svg">
<path d="M2.37167 3.90518C2.39667 3.65935 2.3025 3.41685 2.11917 3.25185L0.2525 1.00185V0.666016H6.05083L10.5325 10.4952L14.4725 0.666016H20V1.00185L18.4033 2.53268C18.2658 2.63768 18.1975 2.81018 18.2258 2.98102V14.2293C18.1975 14.3993 18.2658 14.5718 18.4033 14.6768L19.9625 16.2077V16.5435H12.1192V16.2077L13.735 14.6393C13.8933 14.481 13.8933 14.4343 13.8933 14.1918V5.10018L9.4025 16.5068H8.79583L3.56667 5.10018V12.7452C3.52333 13.066 3.63 13.3902 3.85583 13.6218L5.95667 16.1702V16.5068H0V16.1702L2.10083 13.6218C2.32583 13.3893 2.42583 13.0635 2.37167 12.7452V3.90518Z" fill="#6E38F7"/>
</svg>
