<svg width="18" height="14" viewBox="0 0 18 14" fill="none" xmlns="http://www.w3.org/2000/svg">
<path d="M17.3346 1.93746C16.7214 2.20968 16.0624 2.39301 15.3707 2.47565C16.077 2.05273 16.6194 1.3826 16.8742 0.583984C16.2138 0.975651 15.4819 1.26037 14.7027 1.41385C14.0798 0.749262 13.1902 0.333984 12.2069 0.333984C9.99922 0.333984 8.377 2.39371 8.87561 4.5319C6.03464 4.38954 3.51519 3.02843 1.82839 0.959679C0.932552 2.49648 1.3638 4.5069 2.88602 5.52496C2.3263 5.5069 1.79852 5.35343 1.33811 5.09718C1.30061 6.68121 2.43602 8.16315 4.08047 8.49301C3.59922 8.62357 3.07214 8.65412 2.53602 8.55134C2.97075 9.90968 4.23325 10.8979 5.73047 10.9257C4.29297 12.0527 2.48186 12.5562 0.667969 12.3423C2.18116 13.3125 3.97908 13.8784 5.90964 13.8784C12.2582 13.8784 15.8451 8.51662 15.6284 3.7076C16.2964 3.22496 16.8763 2.62287 17.3346 1.93746Z" fill="#6E38F7"/>
</svg>
