<svg width="18" height="12" viewBox="0 0 18 12" fill="none" xmlns="http://www.w3.org/2000/svg">
<path fill-rule="evenodd" clip-rule="evenodd" d="M15.5228 0.526339C14.2155 0.166016 8.99612 0.166016 8.99612 0.166016C8.99612 0.166016 3.78712 0.166016 2.47972 0.50574C1.7797 0.701333 1.20329 1.27775 1.00769 1.98807C0.667969 3.29546 0.667969 6.00296 0.667969 6.00296C0.667969 6.00296 0.667969 8.72075 1.00769 10.0076C1.20329 10.7179 1.76941 11.284 2.47972 11.4796C3.79741 11.8296 8.99612 11.8296 8.99612 11.8296C8.99612 11.8296 14.2155 11.8296 15.5228 11.4899C16.2331 11.2943 16.7992 10.7385 16.9846 10.0179C17.3346 8.72075 17.3346 6.01326 17.3346 6.01326C17.3346 6.01326 17.3449 3.29546 16.9846 1.98807C16.7992 1.27775 16.2331 0.711641 15.5228 0.526339ZM7.3387 8.49416V3.50146L11.6727 6.00296L7.3387 8.49416Z" fill="#6E38F7"/>
</svg>
