<svg width="78" height="84" viewBox="0 0 78 84" fill="none" xmlns="http://www.w3.org/2000/svg">
<g clip-path="url(#clip0_20_205)">
<path d="M14.0241 41.88C13.8876 42.115 13.8374 42.3912 13.8822 42.66C13.927 42.9288 14.0639 43.1729 14.2689 43.3494C21.9228 49.9177 23.7513 60.3685 24.0397 62.3963C24.0788 62.6714 24.2142 62.9231 24.4212 63.1054C24.6283 63.2876 24.8931 63.3883 25.1674 63.389C25.2213 63.3884 25.2751 63.3841 25.3285 63.3759C25.6274 63.3323 25.897 63.1703 26.0782 62.9254C26.2594 62.6805 26.3374 62.3729 26.2951 62.0698C25.9407 59.5783 24.5133 52.1284 19.6126 45.707C22.6156 47.1977 25.6024 49.1651 28.362 52.2068C31.3134 55.6648 33.1096 60.811 33.1274 60.86C33.1752 61.0051 33.2511 61.1392 33.3505 61.2544C33.4499 61.3697 33.5709 61.4637 33.7064 61.5312C33.842 61.5986 33.9894 61.6382 34.1401 61.6474C34.2909 61.6567 34.4419 61.6355 34.5845 61.5851C34.7271 61.5348 34.8585 61.4562 34.9709 61.354C35.0833 61.2518 35.1745 61.128 35.2393 60.9897C35.3042 60.8515 35.3412 60.7016 35.3484 60.5487C35.3556 60.3958 35.3328 60.243 35.2813 60.0992C35.2056 59.8771 33.4206 54.7554 30.3258 50.979C30.0906 47.6271 29.2642 40.9331 26.3821 34.7387C29.0222 37.2153 31.3194 40.0426 33.2111 43.1437L33.2321 43.1813C35.1317 46.3122 36.6506 49.6645 37.7558 53.1651V53.1766V53.1929C38.2391 54.7162 38.8223 57.2158 39.2057 59.0477C39.2602 59.3068 39.4009 59.5391 39.604 59.7058C39.8072 59.8725 40.0607 59.9635 40.3221 59.9636C40.4022 59.9635 40.4821 59.9553 40.5605 59.9391C40.8566 59.8749 41.1155 59.6943 41.2804 59.4369C41.4453 59.1795 41.5027 58.8663 41.4401 58.5661C41.0728 56.8224 40.5299 54.4843 40.0466 52.8647C41.2646 49.4132 42.8907 46.1238 44.8893 43.0686L44.9779 42.9364C46.8959 40.0178 49.1887 37.3708 51.7957 35.0652C48.622 41.4327 47.6602 48.3944 47.3767 51.5945V51.6108C47.3767 51.619 47.3767 51.6288 47.3767 51.6369C47.1012 56.9497 48.1661 60.6526 48.2112 60.8077C48.3066 61.0899 48.5057 61.3239 48.7671 61.4609C49.0285 61.5979 49.332 61.6273 49.6143 61.5431C49.8966 61.4589 50.1359 61.2675 50.2824 61.0088C50.4289 60.7502 50.4712 60.4442 50.4006 60.1547C50.3909 60.122 49.4629 56.8566 49.6369 52.1986C52.0755 49.685 54.8828 47.5686 57.9594 45.9242C56.1422 48.4108 54.7744 51.3692 53.9222 54.695C52.8541 58.8763 52.9798 62.1465 52.9862 62.2837C52.9991 62.5811 53.1247 62.8621 53.3369 63.068C53.549 63.2739 53.8314 63.3889 54.1252 63.389H54.1767C54.4792 63.3755 54.764 63.2407 54.9685 63.0145C55.173 62.7883 55.2805 62.489 55.2674 62.1825C55.2674 62.0616 54.8469 49.9814 63.6543 43.4066C63.8746 43.2422 64.0294 43.0031 64.0905 42.7328C64.1516 42.4625 64.1149 42.1789 63.9871 41.9337C63.8593 41.6885 63.6489 41.498 63.3941 41.3967C63.1394 41.2955 62.8573 41.2903 62.5991 41.3821C57.7081 43.1209 53.6532 45.4638 50.0542 48.6442C50.784 43.9095 52.569 36.6554 56.9058 31.3019C57.077 31.092 57.1696 30.8277 57.1673 30.5555C57.1651 30.2833 57.0681 30.0206 56.8934 29.8137C56.7188 29.6069 56.4777 29.4691 56.2126 29.4248C55.9476 29.3804 55.6756 29.4323 55.4446 29.5712C52.519 31.3051 48.382 34.4317 44.464 39.6971C42.584 33.0701 42.3487 29.1418 44.0854 22.1768C44.1465 21.9302 44.1258 21.67 44.0265 21.4365C43.9272 21.203 43.7548 21.0092 43.5359 20.8849C43.3171 20.7606 43.0639 20.7128 42.8155 20.7489C42.5672 20.785 42.3375 20.9029 42.1619 21.0845C36.1705 27.2887 33.9619 33.8929 33.3013 39.1355C29.625 34.0235 25.7071 30.9035 22.8878 29.1206C22.6603 28.9774 22.3904 28.9197 22.1253 28.9576C21.8601 28.9956 21.6165 29.1268 21.4371 29.3283C21.2576 29.5297 21.1538 29.7887 21.1436 30.0599C21.1335 30.3312 21.2177 30.5974 21.3815 30.8121C25.5927 36.3044 27.1811 43.6384 27.7788 48.3928C23.7658 44.8107 19.4902 42.9641 15.4079 41.387C15.1569 41.2907 14.8804 41.2874 14.6272 41.3777C14.3741 41.4679 14.1605 41.6458 14.0241 41.88ZM42.7966 42.1119C41.2827 44.4609 39.9796 46.9427 38.9028 49.5275C37.9292 47.0061 36.7434 44.5743 35.3586 42.2588C35.4665 37.9355 36.6136 31.9729 40.9697 26.0479C40.1465 31.5468 40.8473 35.666 42.7966 42.1119Z" fill="white"/>
<path d="M74.4479 59.3122C72.8852 58.1122 70.0805 59.3579 66.554 62.8208C66.526 62.8475 66.4997 62.8759 66.475 62.9057C63.8427 66.0715 54.1879 72.3557 47.7117 73.83L47.6746 73.8382C44.19 74.7541 42.8561 74.6806 42.405 74.5859C42.5661 74.212 43.0575 73.5231 43.8871 72.7524C45.9702 70.8161 48.2224 68.354 47.1317 66.4846C46.2118 64.9106 43.5037 64.091 30.0373 68.7197C23.7238 70.8895 17.1364 69.3483 10.4588 64.1368C7.28308 61.6239 4.46796 58.6753 2.09446 55.3758C1.95879 55.1683 1.76075 55.0107 1.52971 54.9263C1.29866 54.8419 1.04693 54.8352 0.811836 54.9072C0.576746 54.9792 0.370825 55.1261 0.224615 55.3261C0.0784058 55.5261 -0.000304521 55.7685 0.000159234 56.0174C-0.00766291 56.1808 0.0250141 56.3436 0.0952085 56.4909C2.77822 63.8917 7.46248 70.3777 13.6121 75.207C19.7618 80.0363 27.1286 83.0139 34.8697 83.7991C42.6108 84.5844 50.4137 83.1456 57.3858 79.6473C64.3579 76.1491 70.2177 70.7326 74.2948 64.0176C74.2969 64.0124 74.2996 64.0074 74.3029 64.0029L74.5897 63.5131L74.6138 63.4706C75.5691 61.6812 75.5063 60.1253 74.4479 59.3122ZM72.6162 62.3522L72.3455 62.8094C65.1524 74.63 52.6913 81.6848 38.9977 81.6848C25.4653 81.6848 13.0267 74.5402 5.93993 63.2714C7.24629 64.5202 8.63205 65.6808 10.0883 66.7458C13.1637 68.9793 16.2955 70.5189 19.3999 71.3173C23.1469 72.3191 27.1023 72.1777 30.7703 70.9108C42.0119 67.0478 44.5911 67.4593 45.1083 67.6699C45.0277 67.9785 44.5992 68.9499 42.3422 71.0479C40.9503 72.3394 39.4649 74.2023 40.2882 75.7386C41.1114 77.275 43.399 77.3501 48.2288 76.0831C55.2028 74.4896 65.241 67.9295 68.1795 64.4437C70.9295 61.7563 72.4986 61.1783 73.0028 61.1783C72.9996 61.3661 72.9271 61.7628 72.6162 62.3522Z" fill="white"/>
<path d="M77.9053 27.514C75.2238 20.112 70.5404 13.6245 64.3909 8.79382C58.2415 3.96318 50.8744 0.984542 43.1327 0.198728C35.3911 -0.587086 27.5875 0.85167 20.6149 4.35037C13.6423 7.84906 7.78235 13.2664 3.70562 19.9824L3.69757 19.9955L3.41081 20.4853L3.38664 20.5294C2.43132 22.3253 2.49253 23.8764 3.54774 24.6894C5.11042 25.8895 7.91517 24.6454 11.4417 21.1824C11.47 21.1556 11.4964 21.1267 11.5206 21.0959C14.161 17.9269 23.8158 11.6427 30.2872 10.17L30.3242 10.1602C33.8088 9.24588 35.1428 9.31935 35.5938 9.41405C35.4327 9.78793 34.9414 10.4769 34.1133 11.2459C32.0287 13.1823 29.7765 15.6444 30.8688 17.5154C31.7886 19.0893 34.4951 19.9089 47.9615 15.2803C54.275 13.1104 60.8624 14.6517 67.5417 19.8616C70.7176 22.3743 73.5323 25.3236 75.9044 28.6242C76.009 28.782 76.1502 28.9115 76.3156 29.0011C76.4811 29.0908 76.6657 29.138 76.8533 29.1385C76.9202 29.1382 76.9871 29.1322 77.053 29.1206C77.3179 29.0732 77.5577 28.9326 77.7301 28.7234C77.9025 28.5143 77.9965 28.2502 77.9955 27.9777C78.0036 27.8179 77.9726 27.6586 77.9053 27.514ZM67.909 17.2526C64.8352 15.0207 61.7018 13.4811 58.599 12.6794C54.8532 11.6792 50.8995 11.8217 47.2333 13.0892C35.9918 16.9522 33.4142 16.5407 32.8954 16.3301C32.976 16.0215 33.4045 15.0501 35.6615 12.9521C37.0534 11.659 38.5371 9.7961 37.7139 8.26137C36.8907 6.72665 34.6031 6.64828 29.7733 7.91688C22.8009 9.51038 12.7611 16.0689 9.82744 19.5547C7.07745 22.2421 5.50833 22.82 5.00409 22.82C5.00409 22.6274 5.0782 22.2323 5.39073 21.6412L5.65977 21.1857C12.8545 9.36506 25.314 2.3086 39.0076 2.3086C52.54 2.3086 64.977 9.45323 72.0638 20.7237C70.7559 19.475 69.3679 18.3155 67.909 17.2526Z" fill="white"/>
</g>
<defs>
<clipPath id="clip0_20_205">
<rect width="78" height="84" fill="white"/>
</clipPath>
</defs>
</svg>
