<svg width="114" height="18" viewBox="0 0 114 18" fill="none" xmlns="http://www.w3.org/2000/svg">
<path d="M15.9623 6.20682L11.4992 5.55819L9.50411 1.51346C9.44962 1.40272 9.35997 1.31307 9.24923 1.25858C8.9715 1.12147 8.634 1.23572 8.49513 1.51346L6.50001 5.55819L2.03693 6.20682C1.91388 6.2244 1.80138 6.2824 1.71525 6.37029C1.61112 6.47732 1.55374 6.62131 1.55571 6.77062C1.55769 6.91993 1.61886 7.06235 1.72579 7.16658L4.95489 10.3148L4.192 14.7603C4.17411 14.8637 4.18556 14.9701 4.22504 15.0673C4.26452 15.1646 4.33045 15.2488 4.41537 15.3105C4.50028 15.3722 4.60078 15.4088 4.70546 15.4163C4.81014 15.4237 4.91482 15.4017 5.00763 15.3527L8.99962 13.2539L12.9916 15.3527C13.1006 15.4107 13.2272 15.4301 13.3485 15.409C13.6543 15.3562 13.86 15.0662 13.8072 14.7603L13.0443 10.3148L16.2735 7.16658C16.3613 7.08045 16.4193 6.96795 16.4369 6.8449C16.4844 6.53729 16.2699 6.25252 15.9623 6.20682Z" fill="#6CB981"/>
<path d="M39.9623 6.20682L35.4992 5.55819L33.5041 1.51346C33.4496 1.40272 33.36 1.31307 33.2492 1.25858C32.9715 1.12147 32.634 1.23572 32.4951 1.51346L30.5 5.55819L26.0369 6.20682C25.9139 6.2244 25.8014 6.2824 25.7152 6.37029C25.6111 6.47732 25.5537 6.62131 25.5557 6.77062C25.5577 6.91993 25.6189 7.06235 25.7258 7.16658L28.9549 10.3148L28.192 14.7603C28.1741 14.8637 28.1856 14.9701 28.225 15.0673C28.2645 15.1646 28.3305 15.2488 28.4154 15.3105C28.5003 15.3722 28.6008 15.4088 28.7055 15.4163C28.8101 15.4237 28.9148 15.4017 29.0076 15.3527L32.9996 13.2539L36.9916 15.3527C37.1006 15.4107 37.2272 15.4301 37.3485 15.409C37.6543 15.3562 37.86 15.0662 37.8072 14.7603L37.0443 10.3148L40.2735 7.16658C40.3613 7.08045 40.4193 6.96795 40.4369 6.8449C40.4844 6.53729 40.2699 6.25252 39.9623 6.20682Z" fill="#6CB981"/>
<path d="M63.9623 6.20682L59.4992 5.55819L57.5041 1.51346C57.4496 1.40272 57.36 1.31307 57.2492 1.25858C56.9715 1.12147 56.634 1.23572 56.4951 1.51346L54.5 5.55819L50.0369 6.20682C49.9139 6.2244 49.8014 6.2824 49.7152 6.37029C49.6111 6.47732 49.5537 6.62131 49.5557 6.77062C49.5577 6.91993 49.6189 7.06235 49.7258 7.16658L52.9549 10.3148L52.192 14.7603C52.1741 14.8637 52.1856 14.9701 52.225 15.0673C52.2645 15.1646 52.3305 15.2488 52.4154 15.3105C52.5003 15.3722 52.6008 15.4088 52.7055 15.4163C52.8101 15.4237 52.9148 15.4017 53.0076 15.3527L56.9996 13.2539L60.9916 15.3527C61.1006 15.4107 61.2272 15.4301 61.3485 15.409C61.6543 15.3562 61.86 15.0662 61.8072 14.7603L61.0443 10.3148L64.2735 7.16658C64.3613 7.08045 64.4193 6.96795 64.4369 6.8449C64.4844 6.53729 64.2699 6.25252 63.9623 6.20682Z" fill="#6CB981"/>
<path d="M87.9623 6.20682L83.4992 5.55819L81.5041 1.51346C81.4496 1.40272 81.36 1.31307 81.2492 1.25858C80.9715 1.12147 80.634 1.23572 80.4951 1.51346L78.5 5.55819L74.0369 6.20682C73.9139 6.2244 73.8014 6.2824 73.7152 6.37029C73.6111 6.47732 73.5537 6.62131 73.5557 6.77062C73.5577 6.91993 73.6189 7.06235 73.7258 7.16658L76.9549 10.3148L76.192 14.7603C76.1741 14.8637 76.1856 14.9701 76.225 15.0673C76.2645 15.1646 76.3305 15.2488 76.4154 15.3105C76.5003 15.3722 76.6008 15.4088 76.7055 15.4163C76.8101 15.4237 76.9148 15.4017 77.0076 15.3527L80.9996 13.2539L84.9916 15.3527C85.1006 15.4107 85.2272 15.4301 85.3485 15.409C85.6543 15.3562 85.86 15.0662 85.8072 14.7603L85.0443 10.3148L88.2735 7.16658C88.3613 7.08045 88.4193 6.96795 88.4369 6.8449C88.4844 6.53729 88.2699 6.25252 87.9623 6.20682Z" fill="#6CB981"/>
<path d="M111.962 6.20682L107.499 5.55819L105.504 1.51346C105.45 1.40272 105.36 1.31307 105.249 1.25858C104.971 1.12147 104.634 1.23572 104.495 1.51346L102.5 5.55819L98.0369 6.20682C97.9139 6.2244 97.8014 6.2824 97.7152 6.37029C97.6111 6.47732 97.5537 6.62131 97.5557 6.77062C97.5577 6.91993 97.6189 7.06235 97.7258 7.16658L100.955 10.3148L100.192 14.7603C100.174 14.8637 100.186 14.9701 100.225 15.0673C100.265 15.1646 100.33 15.2488 100.415 15.3105C100.5 15.3722 100.601 15.4088 100.705 15.4163C100.81 15.4237 100.915 15.4017 101.008 15.3527L105 13.2539L108.992 15.3527C109.101 15.4107 109.227 15.4301 109.348 15.409C109.654 15.3562 109.86 15.0662 109.807 14.7603L109.044 10.3148L112.273 7.16658C112.361 7.08045 112.419 6.96795 112.437 6.8449C112.484 6.53729 112.27 6.25252 111.962 6.20682Z" fill="#6CB981"/>
</svg>
