<svg width="39" height="39" viewBox="0 0 39 39" fill="none" xmlns="http://www.w3.org/2000/svg">
<path d="M28.3581 10.8496C29.1854 10.0261 29.1854 8.68396 28.3581 7.86039L25.3146 4.81452L25.319 4.81887C24.5135 4.01274 23.1289 2.62706 21.1695 0.670555C20.2465 -0.231443 18.753 -0.222728 17.8386 0.692342L0.692264 17.839C0.472889 18.0571 0.298784 18.3164 0.179975 18.6021C0.0611657 18.8878 0 19.1941 0 19.5036C0 19.813 0.0611657 20.1194 0.179975 20.4051C0.298784 20.6907 0.472889 20.9501 0.692264 21.1681L17.8343 38.3105C18.2763 38.752 18.8752 39 19.4997 39C20.1242 39 20.7232 38.752 21.1652 38.3105L28.3538 31.1206C29.181 30.297 29.181 28.9549 28.3538 28.1314C27.9564 27.7357 27.4187 27.5136 26.8581 27.5136C26.2976 27.5136 25.7599 27.7357 25.3625 28.1314L19.9199 33.5869C19.6935 33.8135 19.3408 33.8135 19.1144 33.5869L5.4208 19.8957C5.19439 19.6692 5.19439 19.3162 5.4208 19.0896L19.11 5.39842C19.1275 5.38099 19.1492 5.36792 19.1666 5.35049C19.3931 5.17183 19.7065 5.18926 19.9155 5.39842L25.3669 10.8496C26.1941 11.6775 27.5352 11.6775 28.3581 10.8496ZM14.9606 19.5907C14.9606 20.8181 15.4482 21.9951 16.3162 22.863C17.1842 23.7308 18.3615 24.2184 19.589 24.2184C20.8165 24.2184 21.9938 23.7308 22.8618 22.863C23.7297 21.9951 24.2174 20.8181 24.2174 19.5907C24.2174 18.3634 23.7297 17.1863 22.8618 16.3185C21.9938 15.4506 20.8165 14.9631 19.589 14.9631C18.3615 14.9631 17.1842 15.4506 16.3162 16.3185C15.4482 17.1863 14.9606 18.3634 14.9606 19.5907ZM38.3072 17.9087L32.956 12.5795C32.1287 11.756 30.7877 11.756 29.9648 12.5839C29.7681 12.7799 29.612 13.0128 29.5055 13.2693C29.399 13.5258 29.3442 13.8008 29.3442 14.0785C29.3442 14.3563 29.399 14.6313 29.5055 14.8878C29.612 15.1443 29.7681 15.3772 29.9648 15.5731L33.5787 19.1855C33.8051 19.4121 33.8051 19.765 33.5787 19.9916L30.017 23.5517C29.8203 23.7476 29.6643 23.9805 29.5578 24.237C29.4513 24.4935 29.3965 24.7685 29.3965 25.0463C29.3965 25.324 29.4513 25.5991 29.5578 25.8555C29.6643 26.112 29.8203 26.3449 30.017 26.5409C30.4144 26.9366 30.9521 27.1587 31.5126 27.1587C32.0732 27.1587 32.6109 26.9366 33.0083 26.5409L38.3116 21.2379C38.5302 21.0192 38.7035 20.7596 38.8217 20.4738C38.9398 20.188 39.0004 19.8817 39 19.5724C38.9996 19.2631 38.9382 18.9569 38.8193 18.6715C38.7004 18.386 38.5264 18.1268 38.3072 17.9087Z" fill="#21874A"/>
</svg>
