<svg width="18" height="14" viewBox="0 0 18 14" fill="none" xmlns="http://www.w3.org/2000/svg">
<path fill-rule="evenodd" clip-rule="evenodd" d="M0 1C0 0.447715 0.447715 0 1 0H17C17.5523 0 18 0.447715 18 1C18 1.55228 17.5523 2 17 2H1C0.447716 2 0 1.55228 0 1ZM0 13C0 12.4477 0.447715 12 1 12H17C17.5523 12 18 12.4477 18 13C18 13.5523 17.5523 14 17 14H1C0.447716 14 0 13.5523 0 13ZM1 6C0.447715 6 0 6.44772 0 7C0 7.55228 0.447716 8 1 8H17C17.5523 8 18 7.55228 18 7C18 6.44772 17.5523 6 17 6H1Z" fill="#6E38F7"/>
</svg>
