<svg width="20" height="20" viewBox="0 0 20 20" fill="none" xmlns="http://www.w3.org/2000/svg">
<path d="M13.2944 20V12.7747H15.9873L16.3905 9.64808H13.2944V7.65192C13.2944 6.74669 13.5458 6.1298 14.8439 6.1298L16.4995 6.12908V3.33259C16.2132 3.29449 15.2304 3.20936 14.087 3.20936C11.6999 3.20936 10.0656 4.66644 10.0656 7.34227V9.64808H7.36584V12.7747H10.0656V20H2C0.895432 20 0 19.1046 0 18L0 2C0 0.895431 0.895431 0 2 0L18 0C19.1046 0 20 0.895431 20 2V18C20 19.1046 19.1046 20 18 20H13.2944Z" fill="#95A1BB"/>
</svg>
