<svg width="24" height="23" viewBox="0 0 24 23" fill="none" xmlns="http://www.w3.org/2000/svg">
<path d="M21.8502 8.25H18.0937L12.75 1.125C12.6626 1.00857 12.5494 0.914063 12.4192 0.848974C12.289 0.783886 12.1455 0.75 12 0.75C11.8544 0.75 11.7109 0.783886 11.5807 0.848974C11.4505 0.914063 11.3373 1.00857 11.25 1.125L5.90621 8.25H2.14976C1.64444 8.24922 1.15943 8.44889 0.801117 8.80523C0.442808 9.16156 0.240453 9.64546 0.238436 10.1508C0.237345 10.3294 0.263223 10.5072 0.315194 10.6781L3.02633 20.2371C3.20262 20.8601 3.57755 21.4085 4.09411 21.7989C4.61066 22.1893 5.24057 22.4003 5.88805 22.3998H18.1119C18.7594 22.3978 19.3889 22.1864 19.9064 21.7971C20.4239 21.4079 20.8015 20.8616 20.983 20.24L23.6976 10.6682C23.7101 10.6228 23.7192 10.5766 23.7246 10.5299L23.7556 10.241C23.7591 10.2109 23.7609 10.1805 23.7609 10.1502C23.7587 9.64507 23.5564 9.16141 23.1982 8.80523C22.8401 8.44904 22.3553 8.24937 21.8502 8.25ZM12 3.2502L15.75 8.25H8.24996L12 3.2502ZM12 17.6057C11.5635 17.6036 11.1375 17.4723 10.7756 17.2283C10.4137 16.9843 10.1322 16.6386 9.96666 16.2347C9.80108 15.8309 9.75884 15.3871 9.84526 14.9593C9.93168 14.5315 10.1429 14.1389 10.4522 13.831C10.7616 13.5231 11.1552 13.3138 11.5834 13.2294C12.0116 13.145 12.4552 13.1894 12.8583 13.3569C13.2613 13.5244 13.6057 13.8075 13.8479 14.1705C14.0902 14.5336 14.2195 14.9602 14.2195 15.3967C14.2162 15.9831 13.9809 16.5445 13.565 16.958C13.1491 17.3715 12.5864 17.6035 12 17.6033V17.6057Z" fill="white"/>
</svg>
