<svg width="940" height="481" viewBox="0 0 940 481" fill="none" xmlns="http://www.w3.org/2000/svg">
<path d="M245.038 474.305C245.485 473.129 246.343 472.167 246.946 472.167C247.548 472.167 250.185 473.553 252.805 475.246C255.425 476.94 258.629 478.711 259.925 479.181L262.281 480.036L259.383 480.099C257.788 480.134 255.45 480.313 254.185 480.496C252.921 480.679 250.709 480.389 249.271 479.85C245.209 478.33 244.073 476.842 245.038 474.305ZM237.219 471.728C236.219 472.045 235.448 471.573 234.708 470.191C234.121 469.094 233.068 467.999 232.369 467.759C230.765 467.207 227.403 461.759 225.531 456.679C224.586 454.114 223.314 452.341 221.805 451.482C219.127 449.959 218.936 449.268 221.008 448.61C223.38 447.858 223.821 443.677 221.825 440.874C220.872 439.536 220.371 437.966 220.658 437.218C220.997 436.335 220.062 434.786 217.798 432.48C214.941 429.569 214.413 428.51 214.285 425.443C214.202 423.457 213.719 421.332 213.211 420.719C212.57 419.948 212.44 417.179 212.786 411.705C213.16 405.773 212.942 402.112 211.91 397.008C210.377 389.43 209.594 375.31 209.992 362.427C210.077 359.679 209.721 355.905 209.2 354.042C207.933 349.504 202.103 343.776 194.897 339.989C189.743 337.281 189.018 336.587 187.004 332.427C185.784 329.908 183.452 326.142 181.822 324.06C180.192 321.977 178.42 318.919 177.884 317.264C176.183 312.01 173.184 306.73 171.14 305.391C170.052 304.678 168.811 302.825 168.382 301.272C167.689 298.76 167.872 298.059 170.043 294.903C172.397 291.481 172.425 291.341 170.834 290.925C166.925 289.903 168.569 284.678 175.586 275.823C180.25 269.938 181.616 265.454 180.324 260.274C179.832 258.3 179.391 256.236 179.344 255.686C179.298 255.136 178.947 254.687 178.565 254.687C178.184 254.687 178.257 253.965 178.729 253.084C179.456 251.726 179.272 251.338 177.525 250.542C174.98 249.382 171.136 250.529 171.121 252.453C171.103 254.76 170.089 254.93 166.743 253.186C164.952 252.252 163.091 251.488 162.608 251.488C162.125 251.488 160.247 250.211 158.435 248.65C156.623 247.088 154.69 245.455 154.14 245.02C153.591 244.585 153.141 243.4 153.141 242.386C153.141 241.372 152.435 239.903 151.572 239.122C150.709 238.341 149.591 236.454 149.087 234.927C148.425 232.921 147.929 232.394 147.298 233.025C145.981 234.342 144.03 234.092 139.297 231.998C136.822 230.904 134.244 229.035 133.214 227.589C132.231 226.208 130.353 224.523 129.04 223.845C126.874 222.725 126.333 222.733 123.178 223.938L119.702 225.266L109.036 220.098C102.476 216.919 97.3843 213.886 95.8072 212.218C93.3621 209.632 93.2829 209.352 94.0966 206.146C94.8419 203.21 94.7154 202.301 93.0942 198.952C92.0737 196.844 89.8441 193.606 88.1394 191.757C86.4347 189.907 85.2336 188.081 85.4703 187.698C85.7069 187.315 84.5061 184.734 82.8019 181.963C80.8657 178.814 79.4993 175.442 79.1599 172.974C78.7248 169.81 78.2178 168.842 76.6127 168.111C74.9113 167.336 74.4356 167.435 73.4614 168.765C72.0893 170.64 72.4794 172.619 75.5131 179.175C76.7459 181.839 78.02 185.788 78.3443 187.951C78.6687 190.114 79.6267 193.241 80.4733 194.901C82.4785 198.831 81.1837 198.762 78.0216 194.769C76.1566 192.415 75.653 191.123 76.0236 189.646C76.4193 188.07 76.0297 187.31 74.0913 185.877C71.1515 183.703 70.5293 182.301 71.6092 180.284C72.2389 179.107 71.9501 177.816 70.3509 174.66C68.7268 171.455 68.3871 169.903 68.7892 167.523C69.4465 163.632 67.701 160.111 64.4469 158.763C62.5681 157.985 61.9204 157.114 61.5376 154.852C61.2668 153.252 60.7481 150.776 60.3849 149.351C60.0072 147.868 60.0347 146.567 60.4492 146.311C60.8476 146.064 60.5869 144.967 59.8698 143.873C58.8136 142.261 58.7413 141.498 59.4891 139.857C59.9968 138.743 60.1884 137.469 59.9149 137.026C59.6414 136.584 60.323 135.261 61.4295 134.088C62.536 132.914 64.0092 130.574 64.7032 128.886C65.3972 127.199 67.5359 124.072 69.4558 121.936C71.3758 119.801 73.8098 116.06 74.8648 113.624C76.3291 110.242 77.1874 109.191 78.493 109.18C79.4336 109.173 80.1533 109.616 80.0922 110.166C79.8376 112.457 81.6489 111.751 83.6834 108.767C84.8826 107.008 85.5296 105.449 85.1212 105.302C84.7128 105.155 84.3787 104.494 84.3787 103.831C84.3787 103.169 82.7235 101.019 80.7004 99.0524C77.3449 95.7913 77.1294 95.3589 78.2452 94.126C79.1491 93.1271 79.2555 92.3942 78.6526 91.3169C77.5932 89.4238 79.2649 85.1844 81.0776 85.1674C81.8262 85.1602 82.0399 84.9054 81.5802 84.5677C80.549 83.8101 80.0817 82.0894 80.2266 79.5827C80.458 75.5791 79.5819 73.9044 76.6053 72.6607C74.9998 71.9899 72.55 70.5744 71.1613 69.5152C69.7726 68.4559 68.0106 67.5893 67.2459 67.5893C66.4812 67.5893 63.005 66.8615 59.5211 65.972C53.92 64.5419 52.9328 64.4854 50.9925 65.484C46.9715 67.5535 42.7115 68.3969 40.9748 67.4675C39.6721 66.7703 38.2504 67.2008 33.2932 69.7939C29.9475 71.544 25.9508 73.2474 24.4116 73.5793C22.8725 73.9112 19.9269 75.0325 17.8659 76.071C12.0199 79.0167 3.64549 81.9861 1.32907 81.9346C-0.165902 81.9014 0.844814 81.2457 4.8224 79.6684C11.5823 76.9877 18.5284 73.4967 19.171 72.4571C19.9623 71.1767 18.2445 70.7173 16.1811 71.6575C14.6619 72.3497 13.7257 72.2849 11.9726 71.3664L9.71791 70.185L12.1705 68.9167C14.943 67.483 15.8152 65.8609 15.1782 63.3229C14.5612 60.8648 17.9628 59.0587 25.2907 57.9536C29.228 57.3598 32.2213 56.3714 34.2365 54.9995C37.7901 52.5804 37.1796 50.7521 33.3481 52.3391C31.5343 53.0904 30.2132 53.0986 27.527 52.3753C24.2626 51.4963 24.1463 51.3709 25.6065 50.3032C28.0496 48.5167 33.1026 47.4421 36.4226 48.003C38.5234 48.358 40.2442 48.1095 42.0103 47.1962L44.5623 45.8765L42.8824 44.0883C41.9584 43.1048 41.2024 42.0886 41.2024 41.8301C41.2024 41.0883 46.0158 39.6047 48.4226 39.6047C49.6239 39.6047 52.9171 38.7351 55.7409 37.6722C58.5647 36.6093 65.0795 35.1583 70.2183 34.4476C78.5529 33.295 80.3178 33.281 86.5676 34.3172C90.4209 34.9562 95.7325 35.7182 98.371 36.0107C101.01 36.3031 105.68 37.2314 108.749 38.0735C115.878 40.0294 120.521 40.0055 128.486 37.9721C132.002 37.0742 135.557 36.5544 136.384 36.817C137.212 37.0797 138.619 36.9039 139.511 36.4265C140.74 35.7686 141.694 35.8481 143.447 36.7551C145.032 37.5746 146.988 37.8084 149.651 37.4969C152.461 37.1682 154.921 37.5086 158.513 38.7231C161.247 39.6477 164.285 40.4042 165.262 40.4042C166.993 40.4042 166.999 40.4336 165.487 41.5465C164.004 42.6377 164 42.7139 165.392 43.2534C166.194 43.564 168.976 43.5959 171.575 43.3242C176.27 42.8336 176.31 42.8474 177.619 45.3786L178.937 47.9269L180.647 45.7816C181.63 44.5488 183.966 43.1523 186.139 42.4983C189.424 41.5099 190.42 41.5132 193.719 42.5234C196.047 43.2364 198.834 43.4962 200.921 43.1947C203.579 42.8109 204.813 43.05 206.547 44.2847C208.736 45.8435 208.797 45.8443 210.738 44.3395C211.822 43.4998 214.051 42.4385 215.693 41.9811C219.623 40.8861 220.956 38.5528 218.596 36.8997C216.927 35.7307 217 35.6415 221.387 33.4898C224.659 31.8851 226.132 31.5207 226.77 32.1584C227.408 32.7962 227.401 33.4977 226.747 34.7215C225.63 36.8073 227.02 39.9601 228.761 39.292C229.387 39.0518 230.425 39.0572 231.068 39.304C232.078 39.6916 232.062 40.0203 230.949 41.7186C227.875 46.4105 234.767 45.0811 239.433 40.0823C241.33 38.0499 244.269 37.4337 247.024 38.4909C248.803 39.1736 248.636 39.7325 245.69 42.963C242.179 46.8129 240.382 47.6003 235.109 47.6003C232.56 47.6003 229.551 48.1524 228.149 48.8775C226.208 49.8811 225.262 49.9645 223.731 49.2671C220.878 47.9668 219.884 49.0491 221.931 51.2281L223.679 53.0881L220.192 54.0775C218.275 54.6217 215.087 55.1196 213.108 55.1839C210.238 55.2771 209.509 55.5887 209.505 56.7231C209.501 57.6938 208.105 58.7154 205.107 59.9408C195.394 63.9111 187.154 71.0698 190.137 72.9466C190.696 73.2983 191.584 74.5655 192.109 75.7627C192.714 77.1414 193.881 78.1029 195.291 78.3851C196.515 78.6302 199.675 79.8938 202.314 81.1932C204.952 82.4925 208.191 83.7909 209.51 84.0784C213.142 84.87 213.174 84.9533 211.482 89.2449C210.035 92.9165 210.006 93.4405 211.127 95.6093C211.8 96.9091 212.79 97.9599 213.328 97.9443C215.948 97.8685 218.405 95.4506 219.931 91.4454C221.386 87.628 222.049 86.9159 226.225 84.6856C232.387 81.394 234.95 78.1522 234.267 74.5119C233.822 72.1407 234.054 71.5842 236.083 70.1391C237.362 69.2283 239.055 67.0486 239.846 65.2952C241.613 61.376 244.454 60.0173 249.242 60.8003C253.489 61.4946 258.512 64.1909 259.118 66.1023C259.367 66.8869 259.161 68.296 258.659 69.2337C257.899 70.6538 258.042 71.2534 259.519 72.8248L261.291 74.7112L264.185 73.2111C265.776 72.3861 268.327 70.7766 269.853 69.6346L272.628 67.5581L273.28 69.3205C273.639 70.2898 273.741 71.5822 273.507 72.1925C273.272 72.8028 273.455 74.0004 273.911 74.8539C274.425 75.814 274.465 76.9 274.016 77.7024C273.51 78.607 273.848 79.981 275.135 82.2466C276.979 85.4922 276.979 85.4948 275.36 86.6288C273.23 88.1209 274.596 89.7033 276.934 88.452C279.257 87.2092 281.915 87.3708 283.554 88.8544C285.978 91.0475 283.962 93.6712 277.53 96.6974C270.534 99.9891 267.415 100.641 258.283 100.722C251.54 100.782 250.647 100.997 244.091 104.139C240.243 105.984 237.095 107.81 237.095 108.197C237.095 109.846 238.307 109.703 242.959 107.502C245.7 106.205 249.233 105.17 250.915 105.169C253.789 105.169 253.894 105.258 252.997 106.935C252.477 107.906 251.356 109.264 250.505 109.953C249.168 111.036 249.09 111.493 249.927 113.33C251.182 116.085 254.461 117.411 258.382 116.749L261.481 116.227L259.098 117.871C257.788 118.775 255.629 119.749 254.301 120.036C252.973 120.323 250.244 121.385 248.237 122.396C246.199 123.423 244.151 123.966 243.601 123.626C242.336 122.844 243.672 121.671 247.783 119.953C251.439 118.426 250.854 116.803 246.914 117.542C245.379 117.83 240.402 119.705 235.854 121.708C228.755 124.835 227.517 125.661 227.103 127.542C226.595 129.855 224.862 130.949 218.769 132.803C216.825 133.394 214.306 134.824 213.172 135.979C212.037 137.134 209.865 138.864 208.345 139.823C206.824 140.782 205.368 142.462 205.11 143.557C204.683 145.36 204.584 145.403 204.05 144.014C203.049 141.41 201.542 143.955 201.455 148.395C201.366 152.943 199.061 156.046 194.004 158.421C188.82 160.857 181.443 166.613 179.948 169.389C178.629 171.839 178.573 172.794 179.386 179.092C180.145 184.967 180.1 186.442 179.101 188.372C178.356 189.813 177.486 190.502 176.763 190.225C175.047 189.566 172.949 182.506 173.537 179.372C173.945 177.194 173.675 176.369 172.052 174.845C170.744 173.616 169.537 173.149 168.511 173.475C167.654 173.746 165.233 173.231 163.127 172.328C159.9 170.945 158.87 170.829 156.566 171.589C155.005 172.105 153.453 173.327 152.945 174.442C152.189 176.102 151.688 176.315 149.6 175.866C148.249 175.575 146.173 174.841 144.985 174.234C142.06 172.74 140.422 172.844 137.137 174.733C135.605 175.614 132.478 177.301 130.189 178.481C127.558 179.837 125.75 181.38 125.276 182.676C124.864 183.803 123.39 188.197 122 192.44L119.474 200.155L120.764 205.135C123.135 214.285 126.434 217.024 133.307 215.55C138.488 214.438 141.6 212.187 142.744 208.721C143.47 206.52 144.254 205.792 146.599 205.141C150.129 204.16 151.603 204.124 152.959 204.985C154.078 205.695 153.685 206.863 148.675 217.709C145.238 225.151 145.485 225.817 151.374 224.967C156.74 224.194 161.644 224.787 162.217 226.28C162.44 226.862 162.077 230.79 161.41 235.008C160.216 242.553 160.224 242.722 161.943 245.503C162.904 247.057 164.705 248.854 165.946 249.495C167.926 250.52 168.548 250.517 171.04 249.476C175 247.821 177.151 247.996 179.901 250.197C182.1 251.957 182.411 252.006 184.14 250.874C185.165 250.202 186.565 248.536 187.249 247.172C188.793 244.096 191.394 241.935 193.579 241.911C194.492 241.902 196.084 240.994 197.117 239.895C199.214 237.662 202.908 236.935 201.102 239.11C199.588 240.935 198.721 246.806 199.698 248.631C200.511 250.15 200.576 250.141 202.056 248.314C203.109 247.013 203.321 246.179 202.746 245.604C201.372 244.23 201.786 243.089 204.341 241.2C206.994 239.238 209.047 239.439 211.336 241.886C213.015 243.679 221.977 246.104 224.546 245.459C228.458 244.477 239.027 250.904 242.999 256.679C244.89 259.428 250.93 262.196 253.587 261.529C259.051 260.158 266.542 265.632 268.294 272.277C268.816 274.256 269.602 276.099 270.042 276.373C271.209 277.1 269.461 279.971 265.641 283.605C263.201 285.927 262.618 286.926 263.305 287.613C263.991 288.299 265.12 287.698 267.83 285.2C271.771 281.567 273.087 281.198 275.061 283.172C276.262 284.374 276.225 284.618 274.579 286.371C273.599 287.414 272.229 288.291 271.536 288.319C270.806 288.348 271.101 288.699 272.239 289.153C273.801 289.777 274.615 289.601 276.236 288.291C280.458 284.88 281.451 284.717 285.2 286.812C287.638 288.174 288.615 289.211 288.492 290.307C288.15 293.356 288.869 294.031 290.983 292.646C292.663 291.545 293.816 291.493 299.437 292.263C305.416 293.081 306.199 293.408 309.068 296.276C311.198 298.406 313.593 299.807 316.603 300.682C320.643 301.856 321.082 302.215 321.815 304.936C322.878 308.882 321.633 313.261 318.266 317.42C316.828 319.197 315.065 321.805 314.348 323.216C313.632 324.627 312.109 326.719 310.963 327.865C309.024 329.804 308.916 330.289 309.399 334.894C310.344 343.889 305.943 360.672 301.699 364.261C300.318 365.43 299.135 365.704 296.944 365.365C295.143 365.086 293.81 365.266 293.458 365.835C293.144 366.342 291.398 367.412 289.578 368.213C287.757 369.013 285.047 370.711 283.555 371.986C280.972 374.191 280.886 374.436 281.755 377.069C282.757 380.106 282.082 383.701 279.934 386.767C279.24 387.758 278.672 389.445 278.672 390.514C278.672 391.584 277.838 393.573 276.818 394.934C275.799 396.295 273.832 399.41 272.447 401.856C269.042 407.875 266.994 408.918 262.056 407.148C257.77 405.612 255.485 405.428 255.485 406.62C255.485 407.069 256.339 407.826 257.383 408.302C258.427 408.778 260.054 410.714 260.999 412.606C262.406 415.422 262.554 416.4 261.821 418.009C260.686 420.502 256.343 422.594 252.307 422.594C248.731 422.594 247.845 423.469 249.079 425.776C249.842 427.2 249.329 429.492 247.855 431.249C247.735 431.391 246.484 430.911 245.073 430.181C241.705 428.44 240.513 429.549 242.215 432.84C242.907 434.179 244.224 435.512 245.14 435.803C246.715 436.303 246.732 436.414 245.452 437.829C244.706 438.653 244.319 439.904 244.591 440.612C244.883 441.373 244.231 443.017 242.995 444.638C240.986 447.272 240.957 447.455 242.245 449.421C242.982 450.545 244.131 451.674 244.799 451.93C247.206 452.854 247.606 456.011 245.77 459.61C243.93 463.216 243.648 466.831 245.072 468.546C246.366 470.106 242.011 473.144 240.052 472.048C239.287 471.62 238.012 471.476 237.219 471.728ZM190.439 117.962C192.743 117.962 192.77 118.336 190.66 121.018L189.001 123.127L190.704 124.505C192.075 125.616 192.783 125.712 194.346 125C195.413 124.513 196.507 123.42 196.777 122.57C197.144 121.413 197.741 121.143 199.149 121.497C200.452 121.824 201.268 121.544 201.804 120.585C203.429 117.682 199.294 113.97 196.251 115.599C194.073 116.764 191.228 114.445 191.835 112C192.06 111.094 191.597 109.516 190.795 108.458C189.143 106.277 186.628 106.047 181.126 107.574C179.147 108.124 176.89 108.549 176.111 108.518C175.332 108.488 174.903 108.802 175.159 109.215C175.414 109.628 175.332 109.974 174.976 109.984C174.62 109.994 173.434 110.689 172.34 111.53L170.35 113.059L172.585 113.908C174.331 114.572 175.361 114.478 177.301 113.474C179.581 112.295 180.003 112.296 182.492 113.483C183.991 114.198 186.037 114.565 187.074 114.304C188.104 114.046 189.167 114.191 189.437 114.628C189.713 115.074 188.586 115.648 186.865 115.939C182.185 116.729 179.754 118.678 176.36 124.358C173.525 129.103 173.363 129.675 174.493 130.929C175.601 132.16 175.908 132.179 177.429 131.115C178.363 130.462 180.026 128.048 181.126 125.751C183.262 121.286 187.237 117.962 190.439 117.962ZM195.652 130.686C198.498 129.234 198.772 128.869 197.769 127.866C196.766 126.863 196.132 126.928 192.869 128.372C189.038 130.067 187.822 132.354 190.752 132.354C191.649 132.354 193.854 131.603 195.652 130.686ZM209.829 124.644C211.495 123.478 211.556 123.249 210.382 122.592C208.653 121.624 203.513 123.291 203.513 124.82C203.513 126.395 207.488 126.284 209.829 124.644ZM270.836 468.329C271.364 467.802 271.494 467.37 271.124 467.37C270.755 467.37 270.021 467.96 269.494 468.681C268.737 469.716 268.214 469.806 267.007 469.105C266.145 468.604 265.935 468.207 266.526 468.194C267.102 468.18 267.35 467.81 267.078 467.37C266.556 466.525 267.928 466.295 271.876 466.565C275.399 466.805 275.753 467.32 273.575 469.033C271.547 470.628 269.877 471.033 269.877 469.928C269.877 469.577 270.309 468.857 270.836 468.329ZM881.458 437.141C881.943 436.234 882.34 434.365 882.34 432.987C882.34 430.735 882.522 430.546 884.139 431.115C885.129 431.463 887.198 431.795 888.737 431.852C890.276 431.91 891.814 432.009 892.154 432.073C893.479 432.322 889.937 436.354 886.754 438.219C882.964 440.44 883.121 440.401 881.658 439.475C880.827 438.948 880.781 438.406 881.458 437.141ZM885.888 421.355C883.826 422.705 879.953 421.916 876.849 419.513C875.192 418.231 875.077 417.818 875.931 416.222C876.66 414.86 876.684 413.905 876.026 412.461C875.541 411.397 875.144 409.823 875.144 408.964C875.144 407.027 873.887 406.935 872.845 408.795C872.417 409.561 871.837 409.959 871.557 409.679C871.277 409.399 872.203 407.854 873.615 406.246C877.089 402.289 875.733 401.215 871.144 404.289C869.167 405.613 867.421 407.06 867.264 407.504C867.107 407.948 866.157 406.577 865.152 404.459C864.062 402.161 862.18 399.853 860.489 398.738C857.948 397.065 857.087 396.927 852.207 397.413C845.049 398.125 838.144 399.89 833.624 402.162C831.57 403.195 827.561 404.252 824.469 404.576C821.444 404.894 816.632 406.033 813.777 407.107C809.411 408.751 808.168 408.924 805.956 408.193C802.988 407.214 801.755 405.195 803.675 404.459C804.37 404.192 805.632 402.357 806.479 400.381C807.834 397.219 807.909 396.234 807.105 392.147C806.44 388.766 806.422 385.565 807.037 380.36C807.502 376.43 807.68 372.441 807.433 371.495C807.185 370.549 807.572 368.234 808.291 366.35C809.56 363.028 809.867 362.811 818.445 359.178C823.31 357.117 828.29 355.431 829.511 355.431C832.816 355.431 836.908 352.287 839.164 348.014C840.559 345.373 841.526 344.369 842.363 344.692C844.698 345.595 845.159 345.417 844.979 343.686C844.863 342.572 845.342 341.762 846.294 341.46C847.117 341.199 848.638 339.743 849.674 338.225C850.735 336.671 852.915 334.919 854.665 334.217C857.584 333.045 857.874 333.062 859.462 334.506C862.392 337.168 864.468 337.946 865.459 336.751C865.941 336.17 866.107 335.466 865.827 335.187C864.912 334.271 869.1 329.017 871.147 328.512C872.246 328.241 874.503 327.339 876.163 326.508C878.751 325.211 879.661 325.125 882.559 325.904C888.81 327.582 889.018 327.857 886.693 331.37C883.702 335.888 884.495 337.655 891.83 342.818C895.216 345.201 898.412 347.009 898.933 346.835C899.454 346.662 901.101 344.837 902.593 342.78C904.626 339.977 905.415 337.939 905.741 334.643C906.203 329.961 908.443 323.449 909.59 323.449C909.97 323.449 910.841 325.374 911.525 327.728C912.209 330.082 913.643 332.828 914.711 333.832C917.207 336.177 918.657 342.734 917.536 346.609C916.793 349.176 916.937 349.588 919.482 352.206C920.993 353.76 923.384 357.55 924.794 360.628C926.203 363.707 928.746 368.062 930.443 370.307L933.529 374.389L932.651 380.696C932.015 385.272 931.03 388.321 929.063 391.806C926.049 397.143 921.543 402.236 919.168 402.99C918.314 403.261 916.336 405.264 914.771 407.442C913.207 409.619 911.575 411.401 911.145 411.401C910.715 411.401 908.885 413.269 907.08 415.553C904.069 419.362 903.515 419.711 900.378 419.769C897.971 419.815 896.127 420.468 894.151 421.975L891.343 424.117L889.5 422.156C887.817 420.364 887.505 420.295 885.888 421.355ZM498.021 400.454C498.378 398.259 498.038 396.968 496.517 394.73C495.437 393.14 494.553 391.449 494.553 390.971C494.553 390.492 493.14 388.206 491.411 385.89C488.741 382.31 488.192 380.88 487.751 376.351C486.974 368.359 484.422 359.709 480.993 353.439C479.306 350.357 477.687 346.355 477.393 344.546C476.768 340.697 478.332 334.968 481.9 328.026L484.274 323.409L482.94 319.392C482.194 317.146 481.83 314.487 482.113 313.358C482.444 312.037 482.088 310.463 481.081 308.799C480.234 307.402 478.977 304.279 478.288 301.861C477.366 298.63 476.082 296.529 473.448 293.945C468.38 288.973 467.721 287.016 469.294 281.606C472.496 270.593 469.037 264.169 460.587 265.437C457.297 265.93 457.172 265.869 456.707 263.544C456.35 261.761 455.384 260.712 452.957 259.474C449.803 257.865 448.453 257.859 444.581 259.436C443.701 259.794 440.103 261.036 436.585 262.195C431.295 263.938 429.707 264.163 427.404 263.495C425.223 262.862 423.386 263.026 418.922 264.251C414.309 265.516 412.637 265.652 410.145 264.964C404.944 263.528 396.009 255.475 394.738 251.078C393.755 247.675 387.638 239.745 385.557 239.174C384.234 238.811 384.071 238.53 384.881 238.007C385.696 237.481 385.554 237.215 384.282 236.882C382.261 236.354 382.06 234.702 384.014 234.685C385.21 234.675 385.239 234.56 384.214 233.898C383.459 233.41 383.375 233.118 383.987 233.111C384.622 233.103 384.38 232.117 383.291 230.27C381.757 227.671 381.725 227.327 382.897 226.033C386.474 222.08 387.258 213.569 384.539 208.207C383.24 205.647 384.075 202.111 386.845 198.435C387.888 197.051 389.925 193.684 391.371 190.951C393.9 186.172 399.538 179.528 401.064 179.528C402.753 179.528 408.201 173.671 408.201 171.855C408.201 167.757 410.651 163.67 414.647 161.106C416.793 159.729 419.309 157.373 420.237 155.872C422.135 152.801 422.403 152.701 424.614 154.241C425.481 154.846 427.637 155.583 429.404 155.88C432.099 156.332 433.387 156.006 437.399 153.86C444.303 150.168 448.569 149.246 456.469 149.739C461.679 150.064 464.024 149.856 466.55 148.846C470.269 147.358 473.484 148.238 472.614 150.507C472.352 151.188 472.512 152.196 472.969 152.747C473.544 153.439 473.539 154.432 472.954 155.97C472.219 157.903 472.382 158.478 474.203 160.378C475.354 161.58 477.417 162.788 478.785 163.062C485.211 164.347 487.038 165.179 488.365 167.425C489.337 169.071 490.612 169.916 492.718 170.311C494.357 170.618 496.736 171.407 498.005 172.063C500.161 173.178 500.441 173.137 502.238 171.449C503.447 170.313 503.995 169.111 503.711 168.218C503.463 167.435 503.652 166.062 504.132 165.166C505.369 162.855 508.881 163.081 514.365 165.827C520.34 168.818 531.67 170.952 535.687 169.843C537.619 169.31 539.477 169.303 541.168 169.822C546.693 171.52 549.522 170.191 550.276 165.544C550.527 164 550.955 162.737 551.227 162.737C551.744 162.737 552.014 160.416 552.089 155.341C552.113 153.692 552.503 152.343 552.955 152.343C553.494 152.343 553.467 151.764 552.878 150.663C551.895 148.826 549.901 148.868 545.129 150.826C542.865 151.755 542.235 151.716 540.208 150.518C537.579 148.965 534.881 148.732 534.103 149.991C533.524 150.927 529.436 150.271 527.219 148.886C525.626 147.891 524.137 144.93 524.137 142.756C524.137 141.922 523.328 140.669 522.338 139.972C520.807 138.894 520.718 138.588 521.739 137.92C522.398 137.488 523.755 137.327 524.754 137.562C526.028 137.862 527.199 137.36 528.678 135.882C530.069 134.49 531.762 133.722 533.658 133.621C535.238 133.537 537.526 132.812 538.743 132.01C541.385 130.269 547.384 130.753 552.038 133.083C558.314 136.224 563.888 136.039 566.131 132.616C567.298 130.834 567.305 130.46 566.197 128.77C565.522 127.74 562.28 125.367 558.993 123.497L553.017 120.096L554.136 117.931C554.752 116.74 555.055 115.564 554.808 115.318C554.562 115.071 554.656 114.396 555.018 113.817C555.379 113.238 555.745 112.3 555.831 111.732C556.015 110.521 554.725 110.855 548.367 113.667C544.676 115.3 544.127 115.8 544.946 116.787C545.482 117.433 546.687 117.978 547.622 117.997C548.935 118.024 548.624 118.401 546.263 119.647C543.396 121.16 543.076 121.179 541.212 119.958C539.618 118.914 539.41 118.428 540.165 117.518C540.915 116.614 540.803 116.267 539.619 115.822C538.8 115.514 537.744 114.748 537.272 114.119C534.982 111.067 527.716 119.097 525.603 127.016C524.611 130.733 524.644 130.927 526.511 132.335L528.449 133.797L524.894 134.53C522.938 134.933 520.303 134.98 519.038 134.634C516.702 133.997 513.743 134.958 513.743 136.355C513.743 136.765 513.199 136.892 512.533 136.637C511.868 136.382 510.812 136.597 510.186 137.117C509.216 137.922 509.326 138.582 510.934 141.606C512.676 144.881 512.729 145.33 511.643 147.507C510.282 150.236 509.016 150.033 507.093 146.778C505.752 144.508 505.761 144.456 507.535 144.204C509.773 143.887 509.917 142.462 507.746 142.114C502.792 141.322 500.15 138.712 500.15 134.609C500.15 131.408 497.183 127.879 493.584 126.8C491.713 126.24 489.68 125.063 489.066 124.186C488.451 123.308 486.652 122.048 485.067 121.386C483.483 120.724 481.709 119.502 481.127 118.67C480.29 117.475 479.74 117.331 478.515 117.987C477.661 118.444 476.963 119.332 476.963 119.961C476.963 122.037 487.154 131.429 492.136 133.943C497.418 136.61 498.243 137.562 494.573 136.756C491.301 136.037 490.41 136.756 491.529 139.212C492.315 140.938 492.187 141.462 490.605 142.982L488.768 144.747L489.186 142.365C489.85 138.584 484.865 133.153 480.731 133.153C479.216 133.153 473.394 127.506 471.868 124.557C470.239 121.405 468.425 120.796 465.856 122.538C461.987 125.162 459.085 126.049 456.05 125.536C452.017 124.855 449.48 126.261 450.123 128.821C450.458 130.158 450.272 130.755 449.518 130.755C448.918 130.755 447.382 131.654 446.104 132.753C444.827 133.851 443.506 134.751 443.17 134.751C442.181 134.753 439.39 139.804 439.387 141.599C439.383 143.315 436.257 146.697 433.24 148.247C432.279 148.741 430.043 149.145 428.271 149.145C425.832 149.145 424.833 149.546 424.164 150.796C423.288 152.433 423.261 152.43 421.212 150.38C419.29 148.458 418.183 147.977 414.303 147.377C412.265 147.061 411.921 142.447 413.445 135.873C414.097 133.063 414.417 129.914 414.156 128.875C413.398 125.857 415.77 124.077 419.738 124.686C428.899 126.093 434.258 126.171 435.514 124.915C437.24 123.189 438.019 117.497 436.966 114.305C436.279 112.223 435.334 111.372 432.514 110.295C428.368 108.712 428.281 107.18 432.334 107.139C433.879 107.124 436.107 106.479 437.286 105.707C438.464 104.935 439.768 104.512 440.182 104.768C441.313 105.467 445.593 103 447.014 100.831C447.701 99.7822 449.054 98.7229 450.02 98.4765C450.986 98.2302 453.576 96.3529 455.775 94.3047C458.892 91.401 460.528 90.4906 463.201 90.1715C466.512 89.7762 469.842 87.053 468.279 86.0188C467.307 85.376 466.495 81.5043 467.036 80.094C467.293 79.4258 468.425 78.2749 469.552 77.5364L471.601 76.1937L471.075 79.4837C470.618 82.3391 470.735 82.7426 471.957 82.5383C472.731 82.4089 474.18 81.8553 475.176 81.3082C476.692 80.475 477.064 80.5155 477.464 81.5573C478.149 83.3429 476.244 85.4425 474.929 84.3511C474.203 83.7483 473.742 83.7701 473.336 84.4266C472.918 85.1038 472.59 85.067 472.109 84.2887C471.748 83.7048 471.27 83.4106 471.045 83.6349C470.821 83.8592 471.46 85.0746 472.466 86.3357C474.161 88.4615 474.484 88.5624 476.9 87.7202C478.969 86.999 479.962 87.0482 481.724 87.9591C483.712 88.9874 484.384 88.9385 488.206 87.4862C491.555 86.2137 492.875 86.0505 494.357 86.7259C495.72 87.3471 496.73 87.3343 497.997 86.6797C501.594 84.8214 502.59 83.4201 502.143 80.848C501.482 77.0355 502.694 75.7867 505.886 76.9917C508.058 77.8117 508.693 77.7791 509.675 76.7973C510.714 75.7578 510.625 75.3738 508.921 73.5604C507.282 71.8158 507.168 71.3821 508.167 70.7079C508.815 70.2706 511.244 70.1139 513.564 70.3597C517.811 70.8095 523.103 69.1506 522.181 67.6586C521.374 66.352 516.499 65.9744 512.37 66.8986C508.707 67.7182 507.746 67.6519 504.939 66.3861C500.579 64.4202 500.066 62.1201 503.056 57.9526C506.905 52.5883 507.609 50.8789 506.512 49.5578C504.889 47.6017 503.294 48.2394 499.585 52.3277C497.626 54.488 494.955 56.6975 493.651 57.2377C492.347 57.7779 490.734 59.276 490.066 60.5669C488.979 62.6691 488.981 63.1096 490.082 64.7912C490.759 65.8237 492.042 66.8999 492.933 67.1828C495.386 67.9613 494.9 69.4224 491.392 71.8228C490.313 72.5611 488.874 74.6498 488.194 76.4643C487.342 78.7381 486.046 80.2896 484.026 81.4562C481.177 83.1009 481.048 83.1073 479.473 81.6827C478.582 80.8763 477.637 79.2316 477.372 78.0277C477.108 76.8239 475.907 74.6597 474.704 73.2184L472.516 70.5979L469.742 72.2889C468.217 73.2189 466.249 73.9732 465.369 73.9651C462.832 73.9417 459.895 71.2009 459.698 68.6735C459.6 67.4176 459.274 65.774 458.973 65.0211C458.257 63.2302 461.837 59.8716 465.558 58.8442C469.292 57.8131 476.866 52.5051 478.157 50.0145C478.731 48.9066 480.676 46.6772 482.479 45.0603C484.283 43.4433 485.758 41.764 485.758 41.3285C485.758 40.8929 487.467 39.9275 489.556 39.1832C491.645 38.4388 495.153 37.0882 497.352 36.1819C500.051 35.0692 503.427 34.4809 507.746 34.3704C515.293 34.1774 520.229 35.1777 524.301 37.7257C526.344 39.0042 527.957 39.4404 529.5 39.1318C532.261 38.5797 546.976 43.1409 547.589 44.7387C548.206 46.3447 543.985 47.8606 540.354 47.3377C538.691 47.0981 535.251 46.4576 532.71 45.9142C529.29 45.1827 527.857 45.1596 527.192 45.8252C526.526 46.4908 526.859 46.9821 528.473 47.7177C529.672 48.2641 531.174 49.717 531.809 50.9464C533.428 54.0766 538.612 56.6283 541.287 55.6113C543.857 54.6342 543.839 54.3261 541.128 52.855C538.62 51.4944 539.777 51.2003 542.927 52.3978C545.442 53.3539 548.291 52.1644 547.628 50.4354C547.317 49.6256 548.191 49.0409 550.656 48.4092C555.931 47.0575 556.317 46.8643 555.879 45.7946C554.224 41.7484 554.201 41.8646 556.609 42.1396C557.894 42.2863 558.833 42.8358 558.726 43.3788C558.621 43.9153 559.29 44.7589 560.214 45.2534C561.602 45.9962 562.697 45.7316 566.513 43.7312C572.109 40.7978 576.466 39.8415 578.091 41.1898C578.996 41.9416 580.498 41.9469 584.846 41.2136C587.921 40.6949 590.786 40.4864 591.213 40.7502C591.64 41.0141 592.225 40.8485 592.513 40.3823C593.143 39.3628 591.401 37.0495 590.447 37.6391C589.295 38.3508 585.514 37.0758 586.336 36.2532C587.165 35.4249 609.416 40.6099 610.748 41.9416C611.645 42.8393 614.488 41.6417 614.488 40.3658C614.488 39.9358 612.901 38.813 610.961 37.8707C604.947 34.949 604.561 30.2697 610.217 28.8503C613.499 28.0265 614.919 28.9768 619.458 35.0376C625.352 42.9064 625.202 42.5061 623.276 45.2104C621.85 47.213 621.765 47.6816 622.754 48.0613C624.629 48.7806 628.64 46.2635 629.205 44.0138C629.867 41.3778 628.631 39.1313 625.681 37.6058C623.362 36.4065 621.684 34.209 621.684 32.3723C621.684 31.7462 622.553 31.59 624.282 31.9058C626.874 32.3792 629.018 31.4392 634.888 27.256C636.23 26.2993 638.499 25.6688 640.787 25.6169C645.429 25.5117 646.931 24.7325 645.595 23.1232C645.071 22.4921 644.809 21.8093 645.013 21.6058C646.034 20.5847 659.197 18.7446 662.229 19.1992C665.146 19.6367 666.049 19.4001 668.449 17.5695C669.993 16.3917 671.256 15.111 671.256 14.7234C671.256 13.7461 664.269 13.8334 663.661 14.8183C662.823 16.1736 661.737 15.702 662.043 14.1157C662.301 12.7762 661.624 12.5583 655.8 12.1048C639.897 10.8666 638.605 10.5761 640.512 8.66826C642.19 6.99089 646.304 7.02342 649.747 8.74125C651.158 9.4451 653.495 10.021 654.941 10.021C656.387 10.021 657.792 10.3808 658.064 10.8205C658.335 11.2603 659.736 11.6201 661.176 11.6201C665.164 11.6201 672.874 13.3426 672.39 14.1254C672.154 14.5065 672.9 14.8183 674.047 14.8183C675.195 14.8183 677.285 15.438 678.692 16.1953C680.585 17.2137 683.228 17.5801 688.847 17.6026C694.886 17.6268 696.893 17.937 698.641 19.1161C699.851 19.9318 700.835 20.8277 700.829 21.1069C700.822 21.3861 698.977 22.6298 696.728 23.8705C691.297 26.8671 692.445 28.173 699.014 26.4707C703.27 25.368 704.247 25.3609 707.771 26.4072C710.661 27.2656 712.466 27.3758 714.426 26.8136C716.383 26.2524 718.392 26.3729 721.8 27.2561C725.357 28.1776 727.2 28.2713 729.454 27.6453C734.597 26.2167 740.926 26.6202 744.597 28.6108C746.422 29.6003 749.787 31.431 752.075 32.6792C756.131 34.8917 756.308 34.9162 759.121 33.6549C761.476 32.5992 762.789 32.5109 766.263 33.1749C769.715 33.8349 770.971 33.7545 772.915 32.7491C774.818 31.7655 775.124 31.282 774.398 30.4073C772.994 28.7157 777.975 28.0869 784.095 29.183C786.898 29.6851 790.451 30.1863 791.99 30.2967C793.529 30.4072 796.536 31.2843 798.673 32.2459C801.93 33.7123 804.389 34.0445 813.921 34.3063C822.966 34.5547 825.845 34.9167 828.027 36.0795C830.242 37.2599 832.766 37.5601 841.163 37.642C848.888 37.7173 852.349 38.0836 854.641 39.0685C858.34 40.6583 859.819 40.0753 857.806 37.8213C856.358 36.2 856.366 36.1977 861.952 36.7526C871.311 37.6824 882.538 39.7304 886.338 41.2013C888.317 41.9671 892.089 42.8571 894.72 43.1789C897.351 43.5008 901.189 44.6186 903.251 45.6631C906.379 47.2484 907.396 47.4235 909.404 46.7232C912.151 45.7656 913.934 46.4552 918.129 50.099L920.736 52.3632L918.771 52.8563C916.8 53.3511 911.564 52.055 909.76 50.6256C909.23 50.2053 908.486 50.0528 908.108 50.2868C907.729 50.5208 905.859 50.1747 903.952 49.5177C899.485 47.9789 897.502 48.5569 899.536 50.8046C900.926 52.3397 900.896 52.372 898.246 52.1872C893.288 51.8413 894.651 53.3055 901.93 56.1446C905.888 57.6883 909.295 59.1154 909.502 59.316C910.253 60.0424 907.779 60.9429 905.978 60.5988C904.002 60.2209 899.131 62.3423 899.131 63.581C899.131 63.9923 898.362 65.0459 897.421 65.9222C895.85 67.3861 895.525 67.4194 893.423 66.3326C891.456 65.3155 890.827 65.3049 888.937 66.2573C887.727 66.8665 885.661 67.6243 884.344 67.9412C883.027 68.2582 881.502 68.8893 880.954 69.3437C879.345 70.6791 882.182 74.5663 886.178 76.5007C888.355 77.5543 889.931 78.9659 890.399 80.2816C890.81 81.4364 891.682 83.333 892.336 84.4962C893.402 86.392 893.393 86.6619 892.248 87.1015C891.408 87.4237 891.161 88.0695 891.526 88.9844C891.833 89.7503 892.179 91.2764 892.295 92.3758C892.412 93.4752 892.765 94.9718 893.079 95.7017C893.488 96.6518 893.15 97.1873 891.89 97.5874C890.487 98.0327 889.541 97.4962 887.234 94.9459C885.642 93.1857 882.986 90.7624 881.333 89.5607C879.679 88.3591 876.716 85.2342 874.748 82.6167C871.277 77.9994 871.206 77.789 872.358 75.5616C873.011 74.2989 873.558 72.4383 873.574 71.427C873.59 70.4157 874.097 68.6947 874.701 67.6025C875.856 65.5165 875.411 63.851 872.942 61.0187C871.321 59.1592 868.437 60.5531 869.164 62.8447C869.834 64.9558 867.779 65.6399 865.414 64.0925C864.389 63.4217 862.03 62.6301 860.171 62.3333C856.979 61.8239 856.742 61.9219 855.915 64.092C855.433 65.3559 855.231 67.354 855.466 68.5322C855.831 70.368 855.577 70.7436 853.689 71.1583C852.403 71.4406 850.203 71.1067 848.409 70.3573C846.439 69.5341 844.584 69.2853 843.248 69.665C842.101 69.9911 838.224 70.2872 834.631 70.3229C828.94 70.3795 827.844 70.6279 826.114 72.2526C825.022 73.2783 823.711 75.7969 823.199 77.8495C822.688 79.9022 821.75 82.3826 821.116 83.3615C820.02 85.0534 820.126 85.2243 823.259 86.8229C826.66 88.558 830.368 89.0151 833.18 88.0457C835.348 87.298 841.962 92.455 844.028 96.5034C844.874 98.1616 846.272 99.8963 847.135 100.358C850.401 102.106 851.065 113.574 848.333 121.071C846.443 126.262 844.326 127.96 841.219 126.778C840.031 126.327 838.94 125.957 838.793 125.957C838.646 125.957 837.757 127.433 836.816 129.238C835.581 131.607 835.341 132.8 835.95 133.534C837.115 134.938 836.253 136.764 833.923 137.825C832.848 138.315 831.968 139.064 831.968 139.49C831.968 139.916 834.47 141.986 837.527 144.09C841.417 146.767 843.495 148.823 844.448 150.937C845.198 152.599 845.665 154.09 845.486 154.252C845.307 154.413 843.673 155.295 841.854 156.212L838.547 157.879L836.558 153.312C834.331 148.2 832.421 146.145 829.056 145.239C827.361 144.783 826.771 144.137 826.771 142.736C826.771 141.453 825.941 140.363 824.179 139.33C821.612 137.826 821.561 137.828 818.83 139.516C816.096 141.206 816.064 141.207 815.225 139.638C814.759 138.768 814.378 137.505 814.378 136.832C814.378 136.159 813.706 135.249 812.884 134.809C811.663 134.155 810.891 134.55 808.646 136.98C807.136 138.613 805.202 140.347 804.348 140.833C803.023 141.587 802.952 141.905 803.866 143.006C804.455 143.716 806.488 145.163 808.384 146.223C811.4 147.909 811.977 148.004 812.994 146.988C813.961 146.021 814.747 145.985 817.665 146.777L821.174 147.73L819.219 149.037C815.592 151.461 814.448 152.734 813.93 154.921C813.506 156.717 813.759 157.257 815.371 157.991C816.447 158.481 818.082 160.437 819.005 162.337C819.928 164.237 821.772 166.434 823.102 167.22C826.029 168.949 826.878 170.786 825.187 171.731C823.612 172.613 824.364 173.931 826.443 173.931C828.934 173.931 828.948 175.416 826.541 183.99C823.626 194.373 820.995 197.837 814.11 200.356C811.399 201.348 808.101 202.219 806.782 202.292C803.715 202.462 801.337 203.76 799.262 206.398L797.616 208.491L796.848 206.471C795.846 203.836 793.548 203.173 790.25 204.568C787.227 205.847 785.235 207.886 784.431 210.523C783.712 212.882 786.258 217.033 790.475 220.372C793.936 223.114 797.82 229.993 798.732 234.999C799.525 239.352 798.12 242.21 794.349 243.91C792.632 244.685 791.024 245.955 790.777 246.733C790.185 248.601 786.634 250.926 785.983 249.873C785.712 249.434 785.702 248.41 785.96 247.596C786.218 246.782 786.205 245.533 785.932 244.819C785.538 243.793 785.101 243.7 783.838 244.376C782.523 245.08 782.016 244.901 780.954 243.362C778.345 239.578 770.782 233.498 768.685 233.498C767.947 233.498 767.662 234.387 767.788 236.297C767.89 237.836 767.576 240.837 767.091 242.965C766.302 246.433 766.383 247.069 767.871 249.082C768.784 250.317 769.759 252.232 770.036 253.338C770.318 254.46 772.63 257.024 775.275 259.145C779.682 262.68 780.147 263.378 782.002 269.25C783.098 272.719 783.994 275.899 783.994 276.316C783.994 277.672 782.324 277.123 778.838 274.619C775.235 272.031 772.933 267.937 771.014 260.701C770.181 257.559 769.267 256.212 766.674 254.304C763.494 251.965 763.398 251.761 763.654 247.89C763.8 245.692 764.16 242.575 764.455 240.965C764.87 238.697 764.527 237.073 762.934 233.768C761.803 231.421 760.465 227.816 759.962 225.757C758.836 221.157 757.247 220.387 754.437 223.079C753.275 224.192 752.1 225.103 751.826 225.103C750.553 225.103 748.804 222.394 749.224 221.072C749.986 218.672 745.301 210.306 742.56 209.171C741.06 208.55 739.689 207.043 738.771 205.008C737.177 201.472 735.388 200.119 733.602 201.097C732.953 201.452 730.358 202.166 727.834 202.683C723.208 203.632 721.548 205.033 722.182 207.455C722.415 208.347 721.605 209.208 719.664 210.134C718.09 210.884 716.395 212.394 715.896 213.488C715.397 214.582 714.3 215.696 713.457 215.964C712.613 216.232 711.313 217.455 710.566 218.683C709.819 219.911 707.595 222.155 705.624 223.67C702.926 225.744 702.083 226.904 702.218 228.363C703.001 236.889 701.799 244.023 698.863 248.259C695.999 252.391 695.798 252.506 693.375 251.403C692.042 250.795 691.221 249.608 690.881 247.796C690.602 246.311 688.992 242.127 687.302 238.498C677.078 216.539 675.567 212.349 676.438 208.384C677.026 205.705 675.614 201.662 674.25 202.119C673.703 202.303 673.246 202.962 673.234 203.584C673.166 207.233 669.066 207.793 665.863 204.591L663.741 202.469L665.567 201.793C667.621 201.034 667.432 198.984 665.343 199.36C664.601 199.493 662.901 198.684 661.567 197.561C660.232 196.438 658.832 195.519 658.456 195.519C658.08 195.519 657.542 194.796 657.261 193.911C656.524 191.589 652.283 189.569 650.157 190.528C648.244 191.39 630.889 191.21 627.984 190.298C626.937 189.969 625.002 188.465 623.682 186.955C621.299 184.226 621.262 184.215 617.686 185.179C614.297 186.093 613.805 186.007 609.241 183.703C605.297 181.712 604.116 180.638 602.898 177.938C601.345 174.493 597.895 171.999 595.797 172.804C595.137 173.058 594.365 174.317 594.083 175.603C593.677 177.45 594.091 178.649 596.051 181.315C597.416 183.171 598.903 186.066 599.356 187.747C600.329 191.359 602.249 192.433 603.841 190.256C604.801 188.942 605.061 188.896 605.711 189.926C606.126 190.584 606.35 191.481 606.209 191.921C605.764 193.303 610.378 195.578 612.531 195.037C613.619 194.764 615.943 192.911 617.697 190.92C620.459 187.781 621.423 187.57 620.951 190.205C620.633 191.979 622.029 194.057 624.339 195.252C627.907 197.096 632.877 201.205 632.877 202.31C632.877 202.819 631.943 204.108 630.801 205.174C629.659 206.24 628.015 208.496 627.148 210.187C625.041 214.296 618.935 220.306 616.868 220.306C614.478 220.306 610.923 222.323 609.508 224.483C608.838 225.506 607.075 226.95 605.591 227.69C597.992 231.484 588.842 235.33 586.267 235.813C583.514 236.33 583.291 236.205 581.832 233.329C580.988 231.663 580.029 228.321 579.703 225.902C579.278 222.757 578.454 220.757 576.809 218.878C575.544 217.434 574.51 215.905 574.51 215.481C574.51 215.057 573.067 213.224 571.303 211.406C569.107 209.143 567.688 206.687 566.798 203.61C566.084 201.139 564.63 198.038 563.568 196.718C556.23 187.606 554.057 184.393 552.963 181.038C551.513 176.59 550.287 175.872 549.721 179.139L549.32 181.457L546.615 178.042C542.447 172.78 541.922 175.172 545.834 181.596C547.686 184.636 550.638 190.002 552.393 193.52C554.149 197.038 556.426 201.03 557.452 202.391C558.509 203.792 559.318 205.982 559.318 207.441C559.318 210.454 560.217 212.334 563.748 216.708C565.168 218.467 566.571 221.035 566.865 222.415C567.243 224.184 568.787 226.035 572.105 228.696C577.147 232.74 580.414 236.962 581.225 240.48C581.53 241.802 582.684 243.158 584.147 243.915C586.377 245.068 587.162 245.036 594.208 243.51C598.412 242.599 602.865 241.329 604.104 240.689L606.356 239.524L606.891 242.689C607.377 245.565 606.854 246.95 601.162 257.867C595.042 269.605 594.756 269.993 588.67 274.797C585.245 277.502 581.66 280.812 580.705 282.155C579.749 283.497 576.691 287.122 573.91 290.21C565.792 299.223 564.689 307.15 570.073 317.774C571.44 320.473 571.974 322.516 571.65 323.807C571.38 324.881 571.553 327.594 572.034 329.836C572.791 333.365 572.705 334.309 571.395 336.876C569.505 340.58 568.001 341.911 562.716 344.56C560.407 345.717 558.518 347.005 558.518 347.423C558.518 347.84 556.899 350.005 554.92 352.233C552.941 354.461 551.322 356.646 551.322 357.089C551.322 357.532 552.064 359.348 552.971 361.125C555.689 366.453 553.862 370.314 547.347 373.012C544.6 374.15 543.698 376.473 544.378 380.66C544.734 382.854 544.508 383.584 543.265 384.249C542.406 384.708 540.855 386.418 539.817 388.048C536.539 393.195 527.118 402.303 522.837 404.462C519.266 406.264 518.352 406.422 515.728 405.698C513.415 405.059 511.548 405.16 507.669 406.135C501.386 407.713 502.052 407.778 499.619 405.345C497.926 403.652 497.643 402.786 498.021 400.454ZM607.292 145.624C607.292 143.441 606.825 141.757 606.039 141.105C605.351 140.534 604.235 138.998 603.56 137.692C602.443 135.533 602.448 135.363 603.613 135.81C605.151 136.4 607.292 135.69 607.292 134.59C607.292 134.156 606.548 132.755 605.638 131.478C604.269 129.555 603.72 129.299 602.44 129.984C601.405 130.538 600.895 130.543 600.895 129.999C600.895 129.553 599.468 128.46 597.723 127.57C593.863 125.601 592.49 123.419 593.694 121.169C594.605 119.467 597.86 118.274 599.25 119.133C601.125 120.291 601.677 118.584 600.131 116.412C596.381 111.145 591.159 111.492 584.683 117.437C580.505 121.274 580.142 122.294 582.505 123.559C583.385 124.029 584.104 124.949 584.104 125.603C584.104 126.257 585.526 128.335 587.265 130.221C591.268 134.564 592.002 136.549 591.507 141.689L591.108 145.827L596.601 148.646C599.622 150.196 602.202 151.482 602.334 151.504C602.466 151.526 603.635 150.994 604.932 150.323C606.997 149.256 607.292 148.668 607.292 145.624ZM579.737 366.99C579.266 363.218 579.462 362.399 581.718 358.732C584.011 355.006 584.176 354.288 583.671 350.24C582.94 344.396 584.183 341.324 587.58 340.579C590.781 339.877 597.705 333.764 599.365 330.175L600.632 327.434L601.514 329.368C603.731 334.234 603.505 336.372 599.648 347.046C597.584 352.757 595.369 359.589 594.727 362.228C592.671 370.672 591.502 372.708 588.135 373.717C584.549 374.791 584.896 374.795 582.905 373.665C580.647 372.385 580.327 371.709 579.737 366.99ZM925.366 315.496C923.091 312.115 918.928 309.556 916.802 310.231C915.942 310.504 914.495 311.987 913.586 313.527C912.04 316.149 911.743 316.293 908.931 315.793C907.279 315.5 904.972 314.369 903.804 313.28C902.319 311.896 901.181 311.458 900.022 311.826C899.11 312.116 897.789 312.031 897.086 311.637C895.987 311.022 896.095 310.734 897.853 309.582C899.889 308.248 899.892 308.23 898.526 305.365C897.428 303.064 895.915 301.865 890.964 299.376C887.56 297.664 883.711 296.264 882.412 296.264C879.439 296.264 878.211 293.523 880.451 291.885C881.783 290.911 881.588 290.669 878.112 288.98C874.421 287.187 874.369 287.111 876.132 286.132C877.128 285.579 878.732 285.114 879.697 285.098C881.57 285.068 883.94 287.771 883.94 289.937C883.94 290.66 884.717 292.239 885.667 293.447C887.37 295.612 887.414 295.621 888.666 294.058C889.365 293.186 891.595 291.521 893.622 290.36L897.308 288.247L902.417 290.552C905.227 291.82 909.216 293.466 911.282 294.211C913.347 294.955 917.478 297.167 920.462 299.127C926.161 302.87 928.636 306.025 927.216 307.736C926.059 309.131 930.605 315.483 935.311 319.047C940.484 322.964 940.397 323.326 934.712 321.534C929.652 319.938 927.358 318.456 925.366 315.496ZM835.165 318.215C834.007 317.574 833.672 317.102 834.367 317.093C835.795 317.074 838.079 318.404 837.541 318.942C837.333 319.15 836.264 318.823 835.165 318.215ZM857.781 313.664C860.171 314.432 860.208 314.496 858.31 314.572C857.187 314.617 854.566 315.733 852.486 317.052C847.739 320.063 846.593 320.095 848.684 317.158C850.951 313.974 854.5 312.611 857.781 313.664ZM825.214 313.786C825.825 312.798 830.949 312.853 831.568 313.854C831.84 314.294 831.591 314.659 831.016 314.665C830.44 314.671 829.25 314.83 828.37 315.02C827.491 315.209 826.319 315.174 825.767 314.941C825.214 314.708 824.966 314.188 825.214 313.786ZM841.625 313.071C845.42 314.093 845.407 314.253 841.474 314.963C839.431 315.332 838.308 315.149 837.637 314.341C836.184 312.59 837.858 312.057 841.625 313.071ZM803.823 310.957C801.755 310.279 799.319 309.96 798.41 310.249C796.579 310.83 788.792 308.541 788.792 307.421C788.792 304.866 795.96 304.672 799.769 307.124C801.191 308.04 802.312 308.101 805.318 307.427C808.649 306.681 809.343 306.773 811.3 308.22C812.517 309.12 813.876 309.856 814.318 309.856C815.899 309.856 820.698 312.531 820.293 313.186C820.066 313.554 819.452 313.804 818.928 313.743C818.404 313.681 815.637 313.307 812.779 312.911C809.92 312.515 805.89 311.635 803.823 310.957ZM774.378 290.216C773.448 288.045 771.315 284.47 769.64 282.271C767.964 280.073 766.04 277.194 765.365 275.875C764.69 274.556 762.639 272.037 760.807 270.278C756.946 266.569 754.571 262.672 756.189 262.699C758.287 262.736 763.688 265.739 766.004 268.157C772.395 274.828 773.704 276.015 776.721 277.874C779.632 279.668 781.01 281.534 781.149 283.871C781.175 284.31 782.003 285.57 782.989 286.669C783.974 287.768 785.835 289.836 787.122 291.264C788.41 292.692 789.696 294.919 789.98 296.214C790.911 300.453 787.498 304.188 784.339 302.389C781.401 300.715 776.103 294.24 774.378 290.216ZM834.754 299.491C835.026 298.635 834.696 297.093 834.019 296.06C832.905 294.361 832.916 294.005 834.132 292.269C834.87 291.215 835.74 288.386 836.067 285.982C836.469 283.016 837.264 281.006 838.54 279.731C840.285 277.986 840.724 277.908 844.646 278.652C848.014 279.291 849.34 279.212 851.173 278.264C854.243 276.676 854.467 276.747 853.448 278.985C852.152 281.829 849.562 282.739 846.831 281.308C841.956 278.753 835.486 282.55 838.899 285.963C840.154 287.218 840.848 287.332 843.172 286.665C847.155 285.523 848.726 285.733 846.252 287.077C843.452 288.598 842.921 290.286 844.364 293.076C845.02 294.346 845.558 296.315 845.558 297.451C845.558 299.271 845.366 299.416 843.957 298.662C843.077 298.191 841.807 296.489 841.135 294.881C839.923 291.98 839.902 291.97 838.35 293.521C836.989 294.882 836.897 295.486 837.642 298.183C838.315 300.621 838.27 301.427 837.43 301.959C836.018 302.854 835.362 302.828 834.759 301.853C834.488 301.41 834.486 300.347 834.754 299.491ZM815.291 294.229C813.302 294.86 805.4 293.252 804.617 292.057C803.995 291.106 802.163 285.247 801.183 281.072C800.914 279.924 801.183 278.434 801.812 277.573C802.728 276.322 803.201 276.227 804.65 277.003C806.18 277.822 806.504 277.682 807.343 275.841C807.867 274.69 809.613 273.076 811.223 272.255C812.927 271.385 814.565 269.758 815.146 268.356C815.815 266.74 817.037 265.655 818.867 265.051C820.365 264.556 822.53 262.921 823.676 261.418C824.823 259.914 826.188 258.684 826.709 258.684C827.23 258.684 828.808 259.872 830.215 261.324L832.773 263.963L830.722 266.721C828.393 269.854 828.515 272.548 831.154 276.255L832.753 278.499L830.761 279.804C829.666 280.522 828.771 281.55 828.773 282.09C828.781 283.921 823.657 294.477 822.372 295.279C821.478 295.838 820.438 295.732 818.902 294.928C817.696 294.296 816.071 293.981 815.291 294.229ZM865.05 293.066C865.655 293.066 867.347 293.305 868.81 293.598C871.064 294.048 871.232 294.224 869.91 294.741C868.174 295.42 867.402 295.449 865.35 294.913C863.695 294.481 863.466 293.066 865.05 293.066ZM862.426 280.134C862.865 279.312 863.012 278.295 862.751 277.874C862.03 276.707 863.836 273.876 865.302 273.876C866.477 273.876 866.473 274.013 865.251 275.363C864.194 276.531 864.077 277.303 864.704 278.954C865.973 282.292 864.593 284.594 862.548 282.549C861.91 281.91 861.872 281.169 862.426 280.134ZM460.972 279.92C460.972 279.726 461.332 279.345 461.771 279.073C462.211 278.801 462.571 278.96 462.571 279.426C462.571 279.892 462.211 280.273 461.771 280.273C461.332 280.273 460.972 280.114 460.972 279.92ZM465.769 270.325C465.769 270.131 466.129 269.75 466.569 269.478C467.009 269.207 467.368 269.365 467.368 269.831C467.368 270.297 467.009 270.678 466.569 270.678C466.129 270.678 465.769 270.519 465.769 270.325ZM846.291 255.102C843.951 255.615 843.87 255.553 844.746 253.915C845.472 252.558 846.145 252.289 847.865 252.667C849.523 253.031 850.583 252.663 852.207 251.157C853.389 250.062 854.364 248.519 854.373 247.729C854.398 245.71 857.368 252.478 858.045 256.097C858.56 258.844 858.495 258.994 857.246 257.959C855.391 256.422 853.606 258.016 855.127 259.85C855.735 260.581 855.812 261.083 855.319 261.083C854.861 261.083 853.921 261.3 853.229 261.566C852.301 261.922 851.551 261.067 850.366 258.304C848.841 254.746 848.638 254.586 846.291 255.102ZM704.583 259.716C703.689 258.264 703.181 251.749 703.827 250.02C704.512 248.186 704.563 248.209 706.6 251.219C709.042 254.827 709.823 257.141 709.017 258.377C708.246 259.559 705.076 260.517 704.583 259.716ZM827.171 250.867C827.171 250.525 828.774 248.456 830.733 246.269C833.604 243.065 834.302 242.612 834.331 243.936C834.351 244.84 833.149 246.909 831.66 248.534C829.136 251.289 827.171 252.311 827.171 250.867ZM844.62 246.172C845.183 245.165 845.418 245.156 846.207 246.106C846.914 246.958 846.882 247.564 846.076 248.668C845.084 250.023 844.985 250.027 844.489 248.733C844.197 247.974 844.256 246.822 844.62 246.172ZM232.193 245.618C232.682 245.028 232.846 244.308 232.557 244.019C232.268 243.729 232.777 243.493 233.688 243.493C234.952 243.493 235.247 243.872 234.928 245.092C234.685 246.02 233.837 246.691 232.906 246.691C231.655 246.691 231.498 246.455 232.193 245.618ZM848.988 243.293C848.81 242.963 849.003 242.693 849.418 242.693C850.216 242.693 851.339 245.976 850.745 246.571C850.553 246.763 850.152 246.239 849.854 245.406C849.556 244.574 849.166 243.623 848.988 243.293ZM843.402 240.416C844.455 240.651 844.494 240.983 843.649 242.547C842.834 244.057 842.482 244.2 841.751 243.32C840.628 241.967 841.723 240.041 843.402 240.416ZM851.204 240.572C850.287 239.406 849.67 238.318 849.833 238.155C850.482 237.505 852.731 238.937 853.927 240.761C855.765 243.568 853.433 243.406 851.204 240.572ZM838.06 237.477C837.348 236.765 836.766 235.768 836.766 235.262C836.766 234.756 837.555 235.132 838.52 236.097C839.485 237.062 840.068 238.058 839.815 238.311C839.562 238.564 838.772 238.189 838.06 237.477ZM209.91 236.003C209.91 235.502 210.282 235.55 210.856 236.123C211.376 236.644 211.616 237.255 211.389 237.483C211.162 237.71 210.736 237.656 210.443 237.363C210.15 237.07 209.91 236.458 209.91 236.003ZM205.912 236.297C205.912 235.857 206.071 235.497 206.265 235.497C206.458 235.497 206.839 235.857 207.111 236.297C207.383 236.736 207.224 237.096 206.759 237.096C206.293 237.096 205.912 236.736 205.912 236.297ZM842.726 234.236C841.178 234.624 840.11 234.001 837.212 231.019C833.118 226.807 832.322 225.031 833.523 222.787C833.987 221.92 834.367 220.128 834.367 218.806C834.367 214.466 837.274 214.641 839.405 219.11C840.585 221.586 840.593 222.117 839.483 224.773C838.289 227.632 838.312 227.759 840.443 229.983C841.982 231.59 843.137 232.135 844.353 231.83C845.381 231.572 846.49 231.891 847.095 232.62C848.535 234.355 847.906 235.593 846.102 234.576C845.301 234.124 843.781 233.971 842.726 234.236ZM181.325 216.578C180.776 216.356 180.326 215.845 180.326 215.441C180.326 214.289 183.855 214.585 185.57 215.882C187.045 216.998 187.002 217.054 184.724 217.019C183.404 216.998 181.875 216.799 181.325 216.578ZM201.558 216.124C200.841 215.723 199.256 215.614 198.037 215.881C196.818 216.149 194.943 216.017 193.87 215.588C192.145 214.898 192.298 214.817 195.19 214.884C199.441 214.984 200.576 214.291 199.489 212.261C198.718 210.82 198.95 210.711 202.765 210.711C206.454 210.711 211.777 212.403 212.68 213.863C213.28 214.833 202.99 216.925 201.558 216.124ZM216.895 216.63C215.947 215.682 217.125 214.709 219.219 214.709C220.476 214.709 221.113 215.085 220.908 215.708C220.539 216.827 217.736 217.471 216.895 216.63ZM795.358 215.358C793.241 213.241 795.337 210.711 799.207 210.711C800.923 210.711 800.924 210.725 799.452 213.245C797.736 216.183 796.712 216.712 795.358 215.358ZM224.702 214.419C225.361 214.166 225.901 214.308 225.901 214.734C225.901 215.16 225.361 215.508 224.702 215.508C224.042 215.508 223.502 215.367 223.502 215.194C223.502 215.021 224.042 214.673 224.702 214.419ZM185.188 208.968C182.683 208.934 182.082 208.687 182.696 207.947C183.29 207.231 182.437 206.278 179.498 204.373C173.734 200.639 170.516 199.909 166.644 201.458C163.014 202.911 162.736 202.952 162.736 202.037C162.736 200.363 169.099 198.523 173.681 198.871C178.063 199.204 180.517 200.137 189.121 204.74C196.193 208.524 196.201 208.531 193.919 209.182C191.326 209.921 189.5 210.024 188.939 209.462C188.692 209.216 187.004 208.993 185.188 208.968ZM194.718 202.715C196.268 201.713 197.117 201.713 197.117 202.715C197.117 203.155 196.307 203.509 195.318 203.502C193.863 203.493 193.748 203.342 194.718 202.715ZM829.639 198.877C828.836 197.351 828.919 196.611 830.127 194.543C831.992 191.35 833.251 190.952 833.856 193.363C834.493 195.9 832.653 202.066 831.488 201.297C831.004 200.978 830.172 199.888 829.639 198.877ZM199.968 200.231C200.502 199.368 203.513 199.27 203.513 200.117C203.512 200.446 202.615 200.768 201.519 200.831C200.423 200.894 199.725 200.625 199.968 200.231ZM184.157 192.526C182.878 191.058 183.064 189.123 184.484 189.123C184.938 189.123 185.126 189.825 184.902 190.683C184.677 191.542 184.905 192.392 185.408 192.573C185.911 192.754 186.111 193.133 185.851 193.416C185.592 193.698 184.83 193.298 184.157 192.526ZM188.801 186.244C188.517 185.503 188.464 184.716 188.684 184.496C188.904 184.276 189.316 184.703 189.601 185.445C189.885 186.186 189.938 186.973 189.719 187.193C189.499 187.413 189.086 186.986 188.801 186.244ZM183.791 185.525C183.791 184.865 184.476 184.325 185.314 184.325C186.667 184.325 186.703 184.458 185.637 185.525C184.978 186.184 184.292 186.724 184.114 186.724C183.936 186.724 183.791 186.184 183.791 185.525ZM852.415 164.551C849.881 161.539 850.778 159.529 853.779 161.495C855.937 162.909 857.064 165.797 856.268 167.871C855.665 169.443 854.356 169.529 854.356 167.996C854.356 167.37 853.482 165.82 852.415 164.551ZM858.812 162.201C858.294 160.85 859.517 159.574 861.352 159.551C862.623 159.535 862.646 161.323 861.392 162.577C860.088 163.881 859.419 163.783 858.812 162.201ZM857.352 157.982C855.31 158.549 853.904 158.556 852.954 158.002C852.186 157.555 851.98 157.178 852.495 157.164C853.011 157.151 854.518 156.228 855.842 155.113C857.552 153.675 858.804 153.225 860.155 153.564C861.586 153.923 863.131 153.236 866.38 150.795C872.705 146.042 873.277 144.543 870.703 139.464C868.234 134.59 868.922 133.021 872.582 135.183C875.246 136.756 877.756 141.263 877.027 143.164C876.764 143.848 877.155 145.994 877.896 147.934C878.944 150.678 879.044 151.833 878.344 153.139C877.317 155.058 874.46 156.341 871.21 156.341C869.389 156.341 868.845 156.808 868.25 158.883L867.521 161.425L866.117 159.283C864.565 156.913 862.372 156.588 857.352 157.982ZM542.207 156.554C541.253 155.599 541.76 154.741 543.279 154.741C544.133 154.741 545.054 154.382 545.326 153.942C546.069 152.739 547.336 152.981 546.856 154.233C546.362 155.519 542.9 157.247 542.207 156.554ZM512.544 154.072L515.742 154.018C519.725 153.951 522.66 154.698 522.082 155.632C521.439 156.673 517.695 156.431 514.942 155.17L512.544 154.072ZM480.963 144.915C482.963 144.391 487.392 145.042 487.301 145.846C487.27 146.121 487 146.942 486.702 147.67C486.21 148.867 485.821 148.821 482.643 147.194C479.443 145.556 479.292 145.351 480.963 144.915ZM466.878 134.9C468.504 133.274 469.767 134.417 469.767 137.513C469.767 141.169 467.761 141.826 466.617 138.544C465.925 136.559 465.979 135.799 466.878 134.9ZM450.378 138.95C450.195 139.5 449.447 140.066 448.715 140.208C447.788 140.387 447.531 140.085 447.867 139.208C448.435 137.73 450.868 137.48 450.378 138.95ZM865.217 126.104C866.279 124.589 866.275 124.134 865.181 122.02C863.382 118.541 863.635 118.331 866.754 120.71C868.296 121.886 871.339 123.377 873.516 124.024C878.015 125.36 879.1 126.409 876.755 127.153C875.869 127.434 875.144 128.186 875.144 128.825C875.144 129.694 874.593 129.844 872.946 129.423C868.727 128.343 867.528 128.607 867.799 130.555C868.13 132.941 867.592 132.823 865.64 130.082C864.176 128.026 864.136 127.647 865.217 126.104ZM467.901 131.021C466.974 130.094 467.323 128.544 468.568 128.067C469.434 127.734 469.767 128.154 469.767 129.58C469.767 131.5 468.984 132.104 467.901 131.021ZM860.566 114.164C859.888 113.394 858.253 110.605 856.933 107.966C855.613 105.326 852.123 100.479 849.178 97.1946C845.887 93.5249 844.215 91.0917 844.841 90.8832C845.401 90.6966 846.601 91.5327 847.509 92.7412C849.708 95.6705 852.417 98.2142 856.692 101.364C860.235 103.975 861.987 106.392 859.701 105.514C857.065 104.503 857.722 106.904 861.134 110.745C863.123 112.985 864.75 114.985 864.75 115.19C864.75 116.162 861.66 115.404 860.566 114.164ZM275.474 112.764C275.474 112.105 275.822 111.565 276.248 111.565C276.674 111.565 276.816 112.105 276.562 112.764C276.309 113.424 275.961 113.964 275.788 113.964C275.615 113.964 275.474 113.424 275.474 112.764ZM268.317 109.872L273.922 104.322C277.005 101.27 279.93 98.7722 280.423 98.7722C280.943 98.7722 280.787 99.3596 280.052 100.172C278.387 102.011 279.522 104.078 282.564 104.746C283.892 105.037 285.216 106.055 285.727 107.178C286.548 108.979 286.409 109.163 283.639 109.932C280.733 110.74 277.263 110.81 271.296 110.184L268.317 109.872ZM76.4676 104.448C73.698 101.861 73.389 100.771 75.2256 100.066C76.8703 99.4349 79.9064 101.493 81.0572 104.018C82.2647 106.668 82.2433 106.768 80.4654 106.768C79.6324 106.768 77.8334 105.724 76.4676 104.448ZM432.436 98.7863C435.159 97.8038 434.707 96.7575 431.263 96.0687C428.901 95.5962 428.818 95.476 430.169 94.4876C430.974 93.8992 431.398 93.0385 431.111 92.5749C430.819 92.1012 431.641 91.3657 432.988 90.896C434.307 90.4363 435.386 89.7051 435.386 89.2711C435.386 87.4243 433.719 84.3176 432.793 84.4384C430.659 84.7168 429.67 84.3405 430.014 83.3806C430.211 82.8309 430.049 81.7515 429.653 80.9819C428.624 78.9809 430.989 74.8425 433.187 74.7975C433.517 74.7915 433.697 75.2266 433.587 75.7658C433.477 76.3051 434.231 76.8744 435.264 77.0309L437.14 77.3156L435.347 79.2242L433.554 81.1329L435.575 81.9014C437.745 82.7263 439.836 85.4136 441.965 90.1133C442.986 92.3651 443.656 92.9537 444.847 92.6423C447.291 92.0033 447.58 93.6591 445.288 95.1611C443.735 96.1787 443.44 96.7521 444.121 97.4323C444.801 98.1126 443.46 98.569 438.809 99.2402C435.387 99.734 431.328 100.371 429.789 100.656C427.648 101.053 427.366 100.989 428.59 100.386C429.469 99.952 431.2 99.2322 432.436 98.7863ZM415.799 92.3704C416.551 90.9173 416.696 89.8861 416.194 89.5754C414.808 88.719 415.327 87.6262 417.363 87.1153C418.444 86.8439 419.748 86.1175 420.259 85.501C421.325 84.2175 426.25 83.9813 426.99 85.1782C427.261 85.6172 426.922 86.7767 426.237 87.7548C425.552 88.733 424.992 90.49 424.992 91.6593C424.992 93.4424 424.444 93.9755 421.594 94.9648C419.725 95.6135 417.612 96.3965 416.899 96.7046C416.063 97.066 415.427 96.8048 415.106 95.969C414.832 95.2562 415.144 93.6369 415.799 92.3704ZM429.789 88.0253C429.789 87.8314 430.149 87.4503 430.589 87.1785C431.028 86.9068 431.388 87.0654 431.388 87.5311C431.388 87.9968 431.028 88.3779 430.589 88.3779C430.149 88.3779 429.789 88.2192 429.789 88.0253ZM75.1932 81.9735C76.8181 80.625 77.624 81.5398 76.6783 83.6593C76.0261 85.1209 75.7889 85.1911 74.9437 84.1728C74.1605 83.229 74.2103 82.7892 75.1932 81.9735ZM73.6934 78.1596C73.4234 77.7227 73.7382 76.9206 74.393 76.3772C75.693 75.2982 75.9645 76.1444 74.8717 77.8691C74.4541 78.528 73.9916 78.6421 73.6934 78.1596ZM27.8767 75.2701C29.1806 74.9543 29.9514 75.0305 29.6924 75.4496C29.4448 75.8502 28.2453 76.3791 27.0268 76.625C25.8083 76.8709 24.1817 77.3156 23.4122 77.6134C22.6426 77.9111 22.0129 77.9274 22.0129 77.6496C22.0129 77.0872 24.4374 76.1034 27.8767 75.2701ZM497.152 68.6589C495.677 68.0637 495.938 67.1462 497.618 67.0196C498.425 66.9589 499.084 67.422 499.084 68.0488C499.084 69.2393 498.807 69.3268 497.152 68.6589ZM315.436 54.0344C316.13 52.3593 316.151 51.3059 315.515 50.1172C314.191 47.6432 315.918 44.744 320.336 42.0257C322.434 40.7347 324.529 38.9716 324.992 38.1078C326.273 35.7147 325.132 31.6137 322.903 30.5981C321.775 30.0841 321.161 29.2714 321.41 28.6219C321.978 27.1428 319.316 22.0908 316.664 19.6157C314.713 17.7939 313.874 17.6125 307.192 17.5687C298.093 17.5092 296.398 17.0033 296.548 14.3926C296.611 13.3081 296.851 12.4205 297.083 12.4202C297.314 12.4199 300.552 12.0446 304.279 11.5862C309.037 11.0009 313.303 9.79395 318.606 7.53236C326.817 4.03083 327.443 3.96242 347.034 4.42292C353.221 4.56833 358.912 4.11047 366.224 2.87919C373.033 1.73254 378.043 1.30029 380.748 1.62608C383.047 1.9029 386.375 1.72034 388.254 1.21437C392.614 0.0402205 403.944 1.4526 408.4 3.72586C411.034 5.0698 412.428 5.24726 416.873 4.80472C421.674 4.3267 422.037 4.38957 420.594 5.44953C419.715 6.09549 417.016 6.88457 414.597 7.20303C409.349 7.89409 404.526 11.6348 405.805 14.0232C406.356 15.0535 405.961 15.9329 404.178 17.6408C402.883 18.8818 401.633 20.4946 401.401 21.2246C400.845 22.9786 393.776 26.2429 390.271 26.3646C386.378 26.4998 385.971 27.3274 388.982 28.9855C390.404 29.7688 392.48 31.1035 393.595 31.9515L395.623 33.4932L393.79 34.1713C392.384 34.6911 391.245 34.356 388.906 32.7356C385.733 30.5368 382.32 30.5257 384.141 32.7202C384.851 33.576 384.68 33.9084 383.351 34.256C380.38 35.0331 382.481 36.5695 385.758 36.0159C387.844 35.6636 389.017 35.8493 389.669 36.6351C390.445 37.5701 389.433 38.0031 383.609 39.2271C379.764 40.0353 374.639 40.7261 372.221 40.7622C367.727 40.8294 364.489 42.1193 359.726 45.7395C358.173 46.9201 354.872 48.09 351.01 48.829C342.937 50.3736 340.209 52.1599 335.345 59.0863C331.438 64.6496 329.082 66.7231 326.646 66.7428C325.986 66.7481 323.647 65.7713 321.448 64.5723C316.389 61.8131 313.97 57.5738 315.436 54.0344ZM260.08 54.852C258.411 52.2166 256.873 51.8818 252.368 53.1738C250.843 53.6111 249.132 53.6533 248.448 53.2703C246.08 51.9453 250.357 50.6421 255.12 51.2372C258.742 51.6898 259.547 51.5609 259.969 50.4601C260.818 48.2483 264.703 46.6633 266.862 47.6474C268.192 48.2532 269.401 48.2363 271.099 47.5881C273.383 46.7161 273.415 46.6374 271.923 45.5416C271.069 44.9148 270.095 44.402 269.758 44.402C269.421 44.402 268.203 42.7958 267.053 40.8326C265.902 38.8694 263.746 36.5123 262.261 35.5946C259.737 34.0349 259.404 34.0075 257.146 35.1748C255.173 36.1953 254.033 36.2667 250.91 35.5656C248.809 35.0937 245.875 34.9348 244.39 35.2124C241.814 35.694 237.095 34.4336 237.095 33.264C237.095 31.1154 243.866 26.2935 247.889 25.5777L251.087 25.0086L248.801 27.4443C245.647 30.8042 246.833 32.3505 250.258 29.3437C251.71 28.0683 254.221 26.7767 255.837 26.4736C258.306 26.0104 259.364 26.3124 262.464 28.3659C266.589 31.0982 266.907 31.1715 269.233 29.9265C270.634 29.1768 271.154 29.3827 272.675 31.2905C273.727 32.6101 276.077 34.047 278.368 34.7721C282.02 35.9276 282.27 36.1789 282.27 38.6977C282.27 40.5865 282.815 41.7784 284.097 42.6955C289.463 46.533 289.346 46.3745 288.185 48.2336C286.593 50.7827 285.336 50.9675 281.813 49.17C279.362 47.9195 278.291 47.7481 277.057 48.4084C275.547 49.2165 275.531 49.3891 276.746 51.7395C277.744 53.6685 277.835 54.6425 277.157 56.1303C276.322 57.9635 276.189 57.9919 273.921 56.819C269.462 54.5133 266.46 56.0305 270.619 58.4875C271.922 59.2573 272.807 60.1809 272.585 60.5399C271.81 61.793 267.854 61.1283 264.756 59.2247C263.039 58.1696 260.935 56.202 260.08 54.852ZM428.989 60.26C428.989 59.8935 429.529 59.5937 430.189 59.5937C430.848 59.5937 431.388 59.8935 431.388 60.26C431.388 60.6265 430.848 60.9263 430.189 60.9263C429.529 60.9263 428.989 60.6265 428.989 60.26ZM234.609 55.96C233.032 55.1313 231.808 55.0603 229.601 55.6698C225.848 56.7061 224.535 55.9478 226.44 53.8433C228.878 51.1492 230.531 50.6194 233.472 51.5899C236.782 52.6822 238.251 54.3058 237.358 55.8847C236.789 56.8913 236.4 56.9019 234.609 55.96ZM389.677 54.4404C388.668 54.7598 388.444 54.4825 388.754 53.2973C389.229 51.4783 396.254 48.8528 398.629 49.6065C399.457 49.8693 401.573 49.6532 403.332 49.1264C406.093 48.2993 406.824 48.3618 408.691 49.5847L410.852 51.0009L408.927 52.5013C407.302 53.7677 404.288 54.8665 397.007 56.8469C396.347 57.0263 394.728 56.4633 393.409 55.5959C392.09 54.7284 390.41 54.2085 389.677 54.4404ZM170.377 38.5802L166.424 36.8062L171.976 36.4064C175.029 36.1866 177.528 35.6468 177.528 35.2071C177.528 34.7673 175.369 34.2147 172.73 33.979C169.246 33.6678 168.59 33.4488 170.331 33.1794C173.248 32.7283 173.458 31.4652 170.731 30.7766C168.768 30.2806 168.782 30.2504 171.544 29.0603C176.331 26.9978 181.43 26.6027 185.947 27.9442C189.656 29.0456 190.236 29.0409 191.984 27.8952C193.221 27.0849 193.955 26.9493 194.018 27.5193C194.073 28.0096 194.163 28.8306 194.218 29.3436C194.404 31.0758 195.999 30.8517 197.902 28.826C199.664 26.9506 202.717 26.0523 202.711 27.4114C202.709 27.7412 201.998 29.1754 201.13 30.5986L199.552 33.1862L202.132 34.5323L204.713 35.8783L200.476 37.812C196.653 39.5568 195.869 39.6567 192.442 38.8346C189.12 38.0376 188.167 38.1287 184.819 39.5637C181.038 41.1845 180.241 41.2884 176.328 40.6701C175.229 40.4963 172.551 39.5559 170.377 38.5802ZM209.838 38.0353C211.137 37.4972 213 37.3179 213.999 37.6348C215.731 38.1844 215.691 38.2708 213.058 39.6728C209.7 41.4614 209.533 41.4769 208.396 40.1068C207.673 39.2366 207.972 38.8084 209.838 38.0353ZM428.989 36.4064C430.54 35.4046 431.388 35.4046 431.388 36.4064C431.388 36.8462 430.579 37.2005 429.589 37.1937C428.134 37.1839 428.02 37.0332 428.989 36.4064ZM572.894 31.2286C573.451 30.5583 573.592 29.9985 573.208 29.9845C572.825 29.9705 573.23 29.4153 574.11 28.7508C574.989 28.0862 575.715 27.2881 575.722 26.9772C575.75 25.7946 579.005 22.6758 581.306 21.6278C582.625 21.0267 586.043 20.3493 588.902 20.1224C591.76 19.8954 595.589 19.4797 597.41 19.1984C599.348 18.8991 600.928 19.0215 601.219 19.4936C601.786 20.4109 600.704 20.8007 594.499 21.9157C588.341 23.022 584.639 24.746 582.201 27.6434C579.633 30.6956 579.547 32.6227 581.905 34.2681L583.704 35.523L581.306 35.4872C579.987 35.4676 577.468 34.883 575.709 34.1882C571.621 32.5735 571.705 32.6618 572.894 31.2286ZM156.943 31.8699C155.653 30.5804 155.947 30.2997 162.134 26.9129C169.382 22.9448 173.025 22.418 179.526 24.3975L183.124 25.493L178.327 26.4442C174.404 27.2222 166.089 30.0026 159.523 32.7323C158.853 33.0107 157.697 32.6243 156.943 31.8699ZM212.508 28.799L210.31 27.5369L213.254 27.9999C215.345 28.3289 216.387 28.1329 216.852 27.3229C217.404 26.3596 222.493 24.4321 224.522 24.4175C224.863 24.4148 224.585 25.4912 223.903 26.809C222.298 29.9127 214.707 33.2361 214.707 30.835C214.707 30.4093 213.718 29.4931 212.508 28.799ZM227.156 28.5005C226.01 26.647 233.834 23.7778 237.157 24.8326C239.579 25.6014 237.961 26.9224 233.736 27.6247C231.845 27.939 229.705 28.4488 228.98 28.7577C228.255 29.0667 227.434 28.9509 227.156 28.5005ZM252.686 22.6127C247.409 22.193 242.993 21.7582 242.873 21.6466C242.158 20.9832 243.941 18.8238 245.86 18.0289C247.747 17.2474 248.616 17.3511 251.2 18.6658C253.717 19.9472 255.34 20.1602 260.018 19.8231C263.171 19.5959 266.769 19.6678 268.013 19.9828L270.277 20.5557L267.478 22.051C265.939 22.8735 264.14 23.5081 263.48 23.4612C262.821 23.4143 257.963 23.0325 252.686 22.6127ZM481.561 16.4052C482.77 16.3984 484.299 16.0047 484.959 15.5302C485.996 14.7843 485.982 14.7234 484.856 15.0802C484.14 15.3072 483.136 15.0741 482.624 14.5626C481.917 13.8553 481.548 13.8678 481.087 14.6149C480.659 15.3065 479.781 15.3884 478.122 14.8913C473.905 13.6287 472.965 13.0681 472.965 11.8162C472.965 10.7558 474.022 10.6587 480.561 11.1184C485.541 11.4684 488.157 11.3714 488.157 10.8366C488.157 9.26265 490.375 10.0399 490.964 11.8199L491.558 13.6189L491.912 11.8199C492.107 10.8305 492.781 10.0209 493.41 10.0209C494.039 10.0209 494.553 9.58914 494.553 9.06143C494.553 8.31517 494.767 8.31517 495.513 9.06143C496.071 9.61955 498.747 10.0209 501.909 10.0209C507.626 10.0209 508.968 11.0429 505.156 12.4924C503.175 13.2457 499.729 13.0326 495.953 11.9233C495.183 11.6972 494.556 11.8064 494.559 12.1658C494.564 12.9037 499.057 15.6178 500.272 15.6178C500.708 15.6178 501.569 16.1226 502.186 16.7395C503.148 17.702 503.14 17.9254 502.129 18.3135C501.48 18.5623 500.95 18.3773 500.95 17.9024C500.95 17.3442 499.933 17.2298 498.073 17.5787C496.058 17.9567 495.36 17.853 495.743 17.2329C496.044 16.7459 495.855 15.8234 495.324 15.183C494.299 13.9476 491.355 13.5694 491.355 14.673C491.355 15.0329 490.186 16.6202 488.757 18.2003L486.158 21.0732L482.782 19.345C478.854 17.3342 478.476 16.4223 481.561 16.4052ZM264.28 16.8172C261.43 17.0794 259.238 16.8533 258.051 16.1747C256.415 15.239 256.815 15.1324 261.809 15.1728C268.053 15.2234 270.796 13.8867 267.414 12.4408C265.807 11.7539 266.042 11.6916 268.795 12.073C272.39 12.5711 273.788 11.6079 271.829 9.9822C269.74 8.24876 272.037 7.71063 279.469 8.19211C284.068 8.49005 286.957 8.32293 288.139 7.69072C290.402 6.47959 289.514 4.93787 286.927 5.58708C285.139 6.03577 272.733 5.2995 273.256 4.7758C273.631 4.40154 291.208 2.77362 302.749 2.0443C308.736 1.666 315.392 1.13829 317.541 0.871605L321.448 0.386719L314.999 3.48486C308.951 6.38957 299.117 9.22135 295.077 9.22135C294.094 9.22135 291.266 10.3008 288.794 11.62C286.322 12.9393 283.803 14.0187 283.197 14.0187C282.591 14.0187 279.976 15.0936 277.385 16.4073C274.795 17.721 272.675 18.7876 272.675 18.7778C272.675 18.7676 271.776 18.2314 270.676 17.586C269.29 16.7723 267.329 16.5366 264.28 16.8172ZM253.915 7.62525C258.066 5.47396 261.994 4.92258 263.78 6.24052C265.194 7.28395 265.112 7.44524 262.335 9.08359C259.441 10.7911 258.266 10.9851 255.085 10.2811C251.21 9.42368 251.068 9.10113 253.915 7.62525Z" fill="#E1E5EE"/>
</svg>
