<svg width="530" height="102" viewBox="0 0 530 102" fill="none" xmlns="http://www.w3.org/2000/svg">
<mask id="path-1-inside-1_0_127" fill="white">
<path d="M0 30C0 30 57.3333 102 118.621 102C179.908 102 211.54 30 268.874 30C326.207 30 350.92 66 402.322 66C453.724 66 436.404 0 529.839 0"/>
</mask>
<path d="M0 30C-0.78228 30.6229 -0.781903 30.6234 -0.781307 30.6241C-0.780817 30.6248 -0.780002 30.6258 -0.779023 30.627C-0.777063 30.6295 -0.774232 30.633 -0.77053 30.6376C-0.763128 30.6469 -0.752249 30.6605 -0.737918 30.6783C-0.709256 30.714 -0.666787 30.7668 -0.610714 30.836C-0.49857 30.9744 -0.332007 31.1788 -0.112655 31.4448C0.326042 31.9768 0.975928 32.7551 1.82397 33.7445C3.51998 35.7233 6.00897 38.5471 9.18665 41.9342C15.5408 48.7072 24.6549 57.7393 35.6942 66.7739C57.7333 84.8105 87.6181 103 118.621 103V101C88.3359 101 58.9104 83.1895 36.9609 65.2261C26.0061 56.2607 16.9563 47.2928 10.6452 40.5658C7.49031 37.2029 5.02133 34.4017 3.34252 32.443C2.50315 31.4637 1.86141 30.6951 1.43034 30.1724C1.21481 29.911 1.05195 29.7111 0.943394 29.5771C0.889116 29.5101 0.848416 29.4596 0.821495 29.426C0.808035 29.4093 0.79802 29.3968 0.791476 29.3886C0.788203 29.3845 0.785799 29.3815 0.784265 29.3796C0.783498 29.3786 0.783002 29.378 0.782618 29.3775C0.78234 29.3771 0.78228 29.3771 0 30ZM118.621 103C149.664 103 173.157 84.7509 195.851 66.784C218.656 48.7289 240.618 31 268.874 31V29C239.796 29 217.275 47.2711 194.609 65.216C171.832 83.2491 148.865 101 118.621 101V103ZM268.874 31C297.309 31 317.651 39.9162 337.408 48.9101C357.157 57.9007 376.374 67 402.322 67V65C376.868 65 358.027 56.0993 338.236 47.0899C318.453 38.0838 297.772 29 268.874 29V31ZM402.322 67C415.432 67 424.218 62.7754 431.451 56.4398C435.048 53.2899 438.249 49.6287 441.398 45.7472C444.576 41.8304 447.637 37.7724 451.086 33.6409C457.929 25.4439 466.027 17.3076 478.174 11.2061C490.324 5.10322 506.6 1 529.839 1V-1C506.361 -1 489.763 3.14678 477.276 9.41889C464.786 15.6924 456.482 24.0561 449.551 32.3591C446.112 36.4776 442.943 40.6696 439.845 44.4872C436.719 48.34 433.602 51.8976 430.134 54.9352C423.238 60.9746 414.913 65 402.322 65V67Z" fill="#6E38F7" mask="url(#path-1-inside-1_0_127)"/>
</svg>
