<svg width="101" height="101" viewBox="0 0 101 101" fill="none" xmlns="http://www.w3.org/2000/svg">
<g clip-path="url(#clip0_4_130)">
<path opacity="0.1" d="M50.5 101C78.3904 101 101 78.3904 101 50.5C101 22.6096 78.3904 0 50.5 0C22.6096 0 0 22.6096 0 50.5C0 78.3904 22.6096 101 50.5 101Z" fill="#6E38F7"/>
<path d="M86.0958 86.3216C95.3009 77.1741 101 64.5026 101 50.5C101 22.6096 78.3904 0 50.5 0L51 51L86.0958 86.3216Z" fill="#6E38F7"/>
<path d="M71.6524 48C71.5591 48 71.4797 47.972 71.4144 47.916C71.3584 47.8507 71.3304 47.7713 71.3304 47.678V45.634H66.7804C66.6871 45.634 66.6077 45.606 66.5424 45.55C66.4864 45.4847 66.4584 45.4053 66.4584 45.312V44.794C66.4584 44.6633 66.5097 44.5233 66.6124 44.374L70.8264 38.438C70.8731 38.3633 70.9431 38.3073 71.0364 38.27C71.1297 38.2233 71.2324 38.2 71.3444 38.2H72.2964C72.3991 38.2 72.4784 38.228 72.5344 38.284C72.5904 38.34 72.6184 38.4193 72.6184 38.522V44.458H73.8924C73.9857 44.458 74.0604 44.4907 74.1164 44.556C74.1817 44.612 74.2144 44.6867 74.2144 44.78V45.312C74.2144 45.4053 74.1817 45.4847 74.1164 45.55C74.0604 45.606 73.9857 45.634 73.8924 45.634H72.6184V47.678C72.6184 47.7713 72.5857 47.8507 72.5204 47.916C72.4644 47.972 72.3897 48 72.2964 48H71.6524ZM67.9144 44.486H71.3444V39.614L67.9144 44.486ZM78.2693 48C78.1759 48 78.1013 47.972 78.0453 47.916C77.9893 47.8507 77.9613 47.7713 77.9613 47.678V39.782L75.6093 41.588C75.5439 41.644 75.4739 41.672 75.3993 41.672C75.3153 41.672 75.2359 41.6253 75.1613 41.532L74.8253 41.098C74.7786 41.0327 74.7553 40.9673 74.7553 40.902C74.7553 40.7993 74.8019 40.7153 74.8953 40.65L77.9333 38.298C78.0359 38.2327 78.1573 38.2 78.2973 38.2H78.9553C79.0486 38.2 79.1233 38.2327 79.1793 38.298C79.2446 38.354 79.2773 38.4287 79.2773 38.522V47.678C79.2773 47.7713 79.2446 47.8507 79.1793 47.916C79.1233 47.972 79.0486 48 78.9553 48H78.2693ZM83.0545 43.114C82.4479 43.114 81.9672 42.9553 81.6125 42.638C81.2672 42.3113 81.0805 41.8633 81.0525 41.294C81.0432 41.1353 81.0385 40.93 81.0385 40.678C81.0385 40.4073 81.0432 40.188 81.0525 40.02C81.0805 39.4413 81.2625 38.984 81.5985 38.648C81.9345 38.3027 82.4199 38.13 83.0545 38.13C83.6892 38.13 84.1745 38.3027 84.5105 38.648C84.8559 38.984 85.0425 39.4413 85.0705 40.02C85.0892 40.356 85.0985 40.5753 85.0985 40.678C85.0985 40.7713 85.0892 40.9767 85.0705 41.294C85.0425 41.8633 84.8512 42.3113 84.4965 42.638C84.1419 42.9553 83.6612 43.114 83.0545 43.114ZM81.8785 48C81.7945 48 81.7245 47.9767 81.6685 47.93C81.6125 47.874 81.5845 47.804 81.5845 47.72C81.5845 47.664 81.6032 47.6127 81.6405 47.566L88.5565 38.466C88.6312 38.3633 88.6965 38.2933 88.7525 38.256C88.8179 38.2187 88.9065 38.2 89.0185 38.2H89.4665C89.5505 38.2 89.6159 38.228 89.6625 38.284C89.7185 38.3307 89.7465 38.396 89.7465 38.48C89.7465 38.536 89.7279 38.5873 89.6905 38.634L82.7885 47.734C82.7139 47.8273 82.6439 47.8973 82.5785 47.944C82.5225 47.9813 82.4385 48 82.3265 48H81.8785ZM83.0545 42.26C83.3905 42.26 83.6379 42.162 83.7965 41.966C83.9552 41.77 84.0485 41.5273 84.0765 41.238C84.0952 40.902 84.1045 40.706 84.1045 40.65C84.1045 40.566 84.0952 40.3747 84.0765 40.076C84.0579 39.7867 83.9645 39.544 83.7965 39.348C83.6379 39.1427 83.3905 39.04 83.0545 39.04C82.7185 39.04 82.4712 39.1427 82.3125 39.348C82.1539 39.544 82.0652 39.7867 82.0465 40.076C82.0372 40.2253 82.0325 40.4167 82.0325 40.65C82.0325 40.874 82.0372 41.07 82.0465 41.238C82.0745 41.518 82.1632 41.7607 82.3125 41.966C82.4712 42.162 82.7185 42.26 83.0545 42.26ZM88.2625 48.084C87.6559 48.084 87.1752 47.9113 86.8205 47.566C86.4752 47.2207 86.2885 46.7633 86.2605 46.194C86.2419 45.914 86.2325 45.7273 86.2325 45.634C86.2325 45.5407 86.2419 45.3073 86.2605 44.934C86.2885 44.3553 86.4705 43.898 86.8065 43.562C87.1425 43.2167 87.6279 43.044 88.2625 43.044C88.8972 43.044 89.3825 43.2167 89.7185 43.562C90.0639 43.898 90.2505 44.3553 90.2785 44.934C90.2972 45.27 90.3065 45.4847 90.3065 45.578C90.3065 45.6713 90.2972 45.8767 90.2785 46.194C90.2505 46.7633 90.0592 47.2207 89.7045 47.566C89.3499 47.9113 88.8692 48.084 88.2625 48.084ZM88.2625 47.174C88.5985 47.174 88.8459 47.076 89.0045 46.88C89.1632 46.684 89.2565 46.4413 89.2845 46.152C89.3032 45.816 89.3125 45.6153 89.3125 45.55C89.3125 45.4753 89.3032 45.2887 89.2845 44.99C89.2659 44.7007 89.1725 44.458 89.0045 44.262C88.8459 44.0567 88.5985 43.954 88.2625 43.954C87.9265 43.954 87.6792 44.0567 87.5205 44.262C87.3619 44.458 87.2732 44.7007 87.2545 44.99C87.2452 45.1393 87.2405 45.326 87.2405 45.55C87.2405 45.7833 87.2452 45.984 87.2545 46.152C87.2732 46.432 87.3619 46.6747 87.5205 46.88C87.6792 47.076 87.9265 47.174 88.2625 47.174Z" fill="white"/>
<path d="M20.1834 63.14C19.4834 63.14 18.8767 63.014 18.3634 62.762C17.85 62.51 17.458 62.1833 17.1874 61.782C16.9167 61.3713 16.772 60.9327 16.7534 60.466V60.438C16.7534 60.3633 16.7814 60.3027 16.8374 60.256C16.8934 60.2093 16.9587 60.186 17.0334 60.186H17.7194C17.9154 60.186 18.0414 60.2887 18.0974 60.494C18.2374 60.998 18.494 61.376 18.8674 61.628C19.25 61.8707 19.6887 61.992 20.1834 61.992C20.818 61.992 21.3454 61.8007 21.7654 61.418C22.1854 61.026 22.3954 60.4893 22.3954 59.808C22.3954 59.1827 22.1854 58.688 21.7654 58.324C21.3454 57.9507 20.818 57.764 20.1834 57.764C19.8474 57.764 19.5767 57.806 19.3714 57.89C19.166 57.974 18.956 58.0953 18.7414 58.254C18.62 58.3473 18.5174 58.4173 18.4334 58.464C18.3587 58.5013 18.2747 58.52 18.1814 58.52H17.5094C17.4254 58.52 17.3507 58.492 17.2854 58.436C17.22 58.3707 17.192 58.296 17.2014 58.212L17.6354 53.55C17.6634 53.3167 17.78 53.2 17.9854 53.2H22.8294C22.932 53.2 23.0114 53.228 23.0674 53.284C23.1234 53.34 23.1514 53.4193 23.1514 53.522V54.04C23.1514 54.1333 23.1187 54.208 23.0534 54.264C22.9974 54.32 22.9227 54.348 22.8294 54.348H18.7974L18.5454 57.162C18.9934 56.8447 19.5954 56.686 20.3514 56.686C20.9767 56.686 21.546 56.812 22.0594 57.064C22.5727 57.3067 22.9787 57.666 23.2774 58.142C23.5854 58.618 23.7394 59.1827 23.7394 59.836C23.7394 60.5267 23.5854 61.124 23.2774 61.628C22.9787 62.1227 22.5587 62.5007 22.0174 62.762C21.4854 63.014 20.874 63.14 20.1834 63.14ZM28.8325 63.14C28.1232 63.14 27.4885 63.0233 26.9285 62.79C26.3779 62.5473 25.9485 62.202 25.6405 61.754C25.3325 61.306 25.1785 60.7833 25.1785 60.186C25.1785 59.6353 25.3139 59.1547 25.5845 58.744C25.8645 58.324 26.2379 58.002 26.7045 57.778C26.3312 57.5633 26.0419 57.2833 25.8365 56.938C25.6312 56.5833 25.5285 56.168 25.5285 55.692C25.5285 54.88 25.8319 54.2407 26.4385 53.774C27.0452 53.298 27.8432 53.06 28.8325 53.06C29.8219 53.06 30.6152 53.2933 31.2125 53.76C31.8192 54.2267 32.1225 54.8707 32.1225 55.692C32.1225 56.1587 32.0199 56.5693 31.8145 56.924C31.6092 57.2693 31.3245 57.554 30.9605 57.778C31.4272 58.002 31.7959 58.324 32.0665 58.744C32.3465 59.1547 32.4865 59.64 32.4865 60.2C32.4865 60.7973 32.3325 61.32 32.0245 61.768C31.7165 62.2067 31.2825 62.5473 30.7225 62.79C30.1719 63.0233 29.5419 63.14 28.8325 63.14ZM28.8325 57.288C29.4019 57.2693 29.8825 57.12 30.2745 56.84C30.6665 56.56 30.8625 56.1867 30.8625 55.72C30.8625 55.244 30.6665 54.866 30.2745 54.586C29.8919 54.2967 29.4112 54.152 28.8325 54.152C28.2445 54.152 27.7592 54.2967 27.3765 54.586C26.9939 54.866 26.8025 55.244 26.8025 55.72C26.8025 56.196 26.9939 56.5787 27.3765 56.868C27.7592 57.148 28.2445 57.288 28.8325 57.288ZM28.8325 62.048C29.4952 62.048 30.0459 61.88 30.4845 61.544C30.9325 61.208 31.1565 60.76 31.1565 60.2C31.1565 59.64 30.9325 59.192 30.4845 58.856C30.0459 58.52 29.4952 58.352 28.8325 58.352C28.1605 58.352 27.6005 58.52 27.1525 58.856C26.7139 59.192 26.4945 59.64 26.4945 60.2C26.4945 60.76 26.7139 61.208 27.1525 61.544C27.6005 61.88 28.1605 62.048 28.8325 62.048ZM35.9696 58.114C35.3629 58.114 34.8822 57.9553 34.5276 57.638C34.1822 57.3113 33.9956 56.8633 33.9676 56.294C33.9582 56.1353 33.9536 55.93 33.9536 55.678C33.9536 55.4073 33.9582 55.188 33.9676 55.02C33.9956 54.4413 34.1776 53.984 34.5136 53.648C34.8496 53.3027 35.3349 53.13 35.9696 53.13C36.6042 53.13 37.0896 53.3027 37.4256 53.648C37.7709 53.984 37.9576 54.4413 37.9856 55.02C38.0042 55.356 38.0136 55.5753 38.0136 55.678C38.0136 55.7713 38.0042 55.9767 37.9856 56.294C37.9576 56.8633 37.7662 57.3113 37.4116 57.638C37.0569 57.9553 36.5762 58.114 35.9696 58.114ZM34.7936 63C34.7096 63 34.6396 62.9767 34.5836 62.93C34.5276 62.874 34.4996 62.804 34.4996 62.72C34.4996 62.664 34.5182 62.6127 34.5556 62.566L41.4716 53.466C41.5462 53.3633 41.6116 53.2933 41.6676 53.256C41.7329 53.2187 41.8216 53.2 41.9336 53.2H42.3816C42.4656 53.2 42.5309 53.228 42.5776 53.284C42.6336 53.3307 42.6616 53.396 42.6616 53.48C42.6616 53.536 42.6429 53.5873 42.6056 53.634L35.7036 62.734C35.6289 62.8273 35.5589 62.8973 35.4936 62.944C35.4376 62.9813 35.3536 63 35.2416 63H34.7936ZM35.9696 57.26C36.3056 57.26 36.5529 57.162 36.7116 56.966C36.8702 56.77 36.9636 56.5273 36.9916 56.238C37.0102 55.902 37.0196 55.706 37.0196 55.65C37.0196 55.566 37.0102 55.3747 36.9916 55.076C36.9729 54.7867 36.8796 54.544 36.7116 54.348C36.5529 54.1427 36.3056 54.04 35.9696 54.04C35.6336 54.04 35.3862 54.1427 35.2276 54.348C35.0689 54.544 34.9802 54.7867 34.9616 55.076C34.9522 55.2253 34.9476 55.4167 34.9476 55.65C34.9476 55.874 34.9522 56.07 34.9616 56.238C34.9896 56.518 35.0782 56.7607 35.2276 56.966C35.3862 57.162 35.6336 57.26 35.9696 57.26ZM41.1776 63.084C40.5709 63.084 40.0902 62.9113 39.7356 62.566C39.3902 62.2207 39.2036 61.7633 39.1756 61.194C39.1569 60.914 39.1476 60.7273 39.1476 60.634C39.1476 60.5407 39.1569 60.3073 39.1756 59.934C39.2036 59.3553 39.3856 58.898 39.7216 58.562C40.0576 58.2167 40.5429 58.044 41.1776 58.044C41.8122 58.044 42.2976 58.2167 42.6336 58.562C42.9789 58.898 43.1656 59.3553 43.1936 59.934C43.2122 60.27 43.2216 60.4847 43.2216 60.578C43.2216 60.6713 43.2122 60.8767 43.1936 61.194C43.1656 61.7633 42.9742 62.2207 42.6196 62.566C42.2649 62.9113 41.7842 63.084 41.1776 63.084ZM41.1776 62.174C41.5136 62.174 41.7609 62.076 41.9196 61.88C42.0782 61.684 42.1716 61.4413 42.1996 61.152C42.2182 60.816 42.2276 60.6153 42.2276 60.55C42.2276 60.4753 42.2182 60.2887 42.1996 59.99C42.1809 59.7007 42.0876 59.458 41.9196 59.262C41.7609 59.0567 41.5136 58.954 41.1776 58.954C40.8416 58.954 40.5942 59.0567 40.4356 59.262C40.2769 59.458 40.1882 59.7007 40.1696 59.99C40.1602 60.1393 40.1556 60.326 40.1556 60.55C40.1556 60.7833 40.1602 60.984 40.1696 61.152C40.1882 61.432 40.2769 61.6747 40.4356 61.88C40.5942 62.076 40.8416 62.174 41.1776 62.174Z" fill="#6E38F7"/>
</g>
<defs>
<clipPath id="clip0_4_130">
<rect width="101" height="101" fill="white"/>
</clipPath>
</defs>
</svg>
