<svg width="21" height="22" viewBox="0 0 21 22" fill="none" xmlns="http://www.w3.org/2000/svg">
<path d="M10.5 0C7.65056 0 7.29225 0.01375 6.17269 0.066C5.05312 0.121 4.29056 0.30525 3.6225 0.5775C2.92175 0.853626 2.28702 1.28676 1.76269 1.84663C1.2286 2.39621 0.815203 3.06108 0.55125 3.795C0.291375 4.4935 0.114188 5.29375 0.063 6.4625C0.013125 7.63812 0 8.01213 0 11.0014C0 13.9879 0.013125 14.3619 0.063 15.5347C0.1155 16.7063 0.291375 17.5051 0.55125 18.205C0.820312 18.9282 1.17863 19.5415 1.76269 20.1534C2.34544 20.7652 2.93081 21.142 3.62119 21.4225C4.29056 21.6947 5.05181 21.8804 6.17006 21.934C7.29094 21.9862 7.64794 22 10.5 22C13.3521 22 13.7078 21.9862 14.8286 21.934C15.9456 21.879 16.7108 21.6947 17.3788 21.4225C18.0791 21.1462 18.7134 20.7131 19.2373 20.1534C19.8214 19.5415 20.1797 18.9282 20.4487 18.205C20.7073 17.5051 20.8845 16.7063 20.937 15.5347C20.9869 14.3619 21 13.9879 21 11C21 8.01213 20.9869 7.63813 20.937 6.46388C20.8845 5.29375 20.7073 4.4935 20.4487 3.795C20.1848 3.06106 19.7714 2.39618 19.2373 1.84663C18.7131 1.28655 18.0784 0.853387 17.3775 0.5775C16.7081 0.30525 15.9443 0.119625 14.8273 0.066C13.7064 0.01375 13.3507 0 10.4974 0H10.5013H10.5ZM9.55894 1.98275H10.5013C13.3048 1.98275 13.6369 1.99238 14.7433 2.046C15.7671 2.09413 16.3236 2.27425 16.6937 2.42412C17.1833 2.6235 17.5337 2.86275 17.9012 3.24775C18.2687 3.63275 18.4958 3.9985 18.6861 4.51275C18.8304 4.89913 19.0011 5.48213 19.047 6.55463C19.0982 7.71375 19.1087 8.06163 19.1087 10.9973C19.1087 13.9329 19.0982 14.2821 19.047 15.4412C19.0011 16.5138 18.8291 17.0954 18.6861 17.4831C18.5177 17.9607 18.249 18.3926 17.8999 18.7467C17.5324 19.1318 17.1833 19.3696 16.6924 19.569C16.3249 19.7203 15.7684 19.899 14.7433 19.9485C13.6369 20.0007 13.3048 20.0131 10.5013 20.0131C7.69781 20.0131 7.36444 20.0007 6.258 19.9485C5.23425 19.899 4.67906 19.7203 4.30894 19.569C3.85284 19.3929 3.44023 19.1119 3.10144 18.7467C2.75199 18.392 2.48289 17.9598 2.31394 17.4818C2.17088 17.0954 1.99894 16.5124 1.953 15.4399C1.90313 14.2808 1.89263 13.9329 1.89263 10.9945C1.89263 8.0575 1.90313 7.711 1.953 6.55187C2.00025 5.47937 2.17088 4.89638 2.31525 4.50863C2.50556 3.99575 2.73394 3.62862 3.10144 3.24362C3.46894 2.85862 3.81806 2.62075 4.30894 2.42138C4.67906 2.27013 5.23425 2.09138 6.258 2.04188C7.22662 1.99513 7.602 1.98138 9.55894 1.98V1.98275ZM16.1057 3.80875C15.9402 3.80875 15.7764 3.84289 15.6235 3.90923C15.4706 3.97557 15.3317 4.0728 15.2147 4.19537C15.0977 4.31794 15.0049 4.46346 14.9416 4.62361C14.8783 4.78376 14.8457 4.95541 14.8457 5.12875C14.8457 5.30209 14.8783 5.47374 14.9416 5.63389C15.0049 5.79404 15.0977 5.93956 15.2147 6.06213C15.3317 6.1847 15.4706 6.28193 15.6235 6.34827C15.7764 6.41461 15.9402 6.44875 16.1057 6.44875C16.4399 6.44875 16.7603 6.30968 16.9966 6.06213C17.2329 5.81458 17.3657 5.47884 17.3657 5.12875C17.3657 4.77866 17.2329 4.44292 16.9966 4.19537C16.7603 3.94782 16.4399 3.80875 16.1057 3.80875ZM10.5013 5.3515C9.78609 5.33981 9.0758 5.47729 8.41178 5.75594C7.74777 6.0346 7.1433 6.44885 6.63357 6.97458C6.12384 7.50032 5.71904 8.12703 5.44273 8.81823C5.16642 9.50944 5.02412 10.2513 5.02412 11.0007C5.02412 11.7501 5.16642 12.4919 5.44273 13.1831C5.71904 13.8743 6.12384 14.5011 6.63357 15.0268C7.1433 15.5525 7.74777 15.9668 8.41178 16.2454C9.0758 16.5241 9.78609 16.6616 10.5013 16.6499C11.9169 16.6267 13.267 16.0214 14.2603 14.9645C15.2535 13.9076 15.8102 12.4839 15.8102 11.0007C15.8102 9.51751 15.2535 8.09382 14.2603 7.03691C13.267 5.97999 11.9169 5.37464 10.5013 5.3515ZM10.5013 7.33288C11.4297 7.33288 12.32 7.71923 12.9765 8.40695C13.633 9.09467 14.0017 10.0274 14.0017 11C14.0017 11.9726 13.633 12.9053 12.9765 13.593C12.32 14.2808 11.4297 14.6671 10.5013 14.6671C9.57294 14.6671 8.68259 14.2808 8.02613 13.593C7.36967 12.9053 7.00087 11.9726 7.00087 11C7.00087 10.0274 7.36967 9.09467 8.02613 8.40695C8.68259 7.71923 9.57294 7.33288 10.5013 7.33288Z" fill="#5F5F5F"/>
</svg>
