<svg width="24" height="20" viewBox="0 0 24 20" fill="none" xmlns="http://www.w3.org/2000/svg">
<path d="M21.9539 0.176566C21.9539 0.176566 24.1741 -0.689148 23.989 1.4133C23.9274 2.27903 23.3724 5.30902 22.9406 8.58639L21.4605 18.2948C21.4605 18.2948 21.3372 19.717 20.2271 19.9644C19.117 20.2117 17.4519 19.0987 17.1435 18.8513C16.8968 18.6658 12.5182 15.8831 10.9763 14.5227C10.5446 14.1517 10.0513 13.4096 11.038 12.5439L17.5136 6.36028C18.2536 5.61823 18.9937 3.8868 15.9101 5.98925L7.27606 11.8638C7.27606 11.8638 6.28932 12.4821 4.4392 11.9256L0.430527 10.6888C0.430527 10.6888 -1.04959 9.76131 1.47894 8.83371C7.64612 5.92737 15.2317 2.9592 21.9539 0.176566Z" fill="#5F5F5F"/>
</svg>
