<svg width="122" height="84" viewBox="0 0 122 84" fill="none" xmlns="http://www.w3.org/2000/svg">
<path d="M0.425703 41.715C0.425703 28.4517 2.34237 18.255 6.1757 11.125C10.009 3.91833 17.0624 0.314995 27.3357 0.314995C37.5324 0.314995 44.5474 3.91833 48.3807 11.125C52.214 18.255 54.1307 28.4517 54.1307 41.715C54.1307 55.1317 52.214 65.4817 48.3807 72.765C44.5474 79.9717 37.5324 83.575 27.3357 83.575C17.0624 83.575 10.009 79.9717 6.1757 72.765C2.34237 65.4817 0.425703 55.1317 0.425703 41.715ZM49.0707 41.715C49.0707 34.0483 48.4957 27.57 47.3457 22.28C46.2724 16.99 44.1257 12.8117 40.9057 9.745C37.7624 6.60166 33.239 5.03 27.3357 5.03C21.4324 5.03 16.8707 6.60166 13.6507 9.745C10.5074 12.8117 8.3607 16.99 7.2107 22.28C6.13737 27.57 5.6007 34.0483 5.6007 41.715C5.6007 49.535 6.13737 56.1283 7.2107 61.495C8.3607 66.785 10.5074 71.0017 13.6507 74.145C16.8707 77.2883 21.4324 78.86 27.3357 78.86C33.239 78.86 37.7624 77.2883 40.9057 74.145C44.1257 71.0017 46.2724 66.785 47.3457 61.495C48.4957 56.1283 49.0707 49.535 49.0707 41.715ZM67.6504 79.205C82.0637 69.2383 93.4104 59.6167 101.69 50.34C110.047 41.0633 114.225 32.17 114.225 23.66C114.225 18.0633 112.73 13.5017 109.74 9.97499C106.827 6.44833 102.035 4.68499 95.3654 4.68499C88.6954 4.68499 83.5971 6.71666 80.0704 10.78C76.5437 14.8433 74.5504 20.21 74.0904 26.88H69.0304C69.5671 18.4467 72.1737 11.8917 76.8504 7.215C81.5271 2.53833 87.6987 0.199997 95.3654 0.199997C102.342 0.199997 108.054 2.155 112.5 6.065C117.024 9.975 119.285 15.8017 119.285 23.545C119.285 33.1283 114.877 42.7883 106.06 52.525C97.3204 62.2617 87.3154 70.8483 76.0454 78.285H121.93V82.655H67.6504V79.205Z" fill="#E6E6E6"/>
</svg>
