<svg width="122" height="84" viewBox="0 0 122 84" fill="none" xmlns="http://www.w3.org/2000/svg">
<path d="M0.425703 41.715C0.425703 28.4517 2.34237 18.255 6.1757 11.125C10.009 3.91833 17.0624 0.314995 27.3357 0.314995C37.5324 0.314995 44.5474 3.91833 48.3807 11.125C52.214 18.255 54.1307 28.4517 54.1307 41.715C54.1307 55.1317 52.214 65.4817 48.3807 72.765C44.5474 79.9717 37.5324 83.575 27.3357 83.575C17.0624 83.575 10.009 79.9717 6.1757 72.765C2.34237 65.4817 0.425703 55.1317 0.425703 41.715ZM49.0707 41.715C49.0707 34.0483 48.4957 27.57 47.3457 22.28C46.2724 16.99 44.1257 12.8117 40.9057 9.745C37.7624 6.60166 33.239 5.03 27.3357 5.03C21.4324 5.03 16.8707 6.60166 13.6507 9.745C10.5074 12.8117 8.3607 16.99 7.2107 22.28C6.13737 27.57 5.6007 34.0483 5.6007 41.715C5.6007 49.535 6.13737 56.1283 7.2107 61.495C8.3607 66.785 10.5074 71.0017 13.6507 74.145C16.8707 77.2883 21.4324 78.86 27.3357 78.86C33.239 78.86 37.7624 77.2883 40.9057 74.145C44.1257 71.0017 46.2724 66.785 47.3457 61.495C48.4957 56.1283 49.0707 49.535 49.0707 41.715ZM69.2604 22.625C69.9504 15.6483 72.6337 10.1667 77.3104 6.18C82.0637 2.19333 88.3121 0.199997 96.0554 0.199997C101.039 0.199997 105.294 1.12 108.82 2.96C112.347 4.72333 115.03 7.13833 116.87 10.205C118.71 13.2717 119.63 16.76 119.63 20.67C119.63 25.5767 118.135 29.8317 115.145 33.435C112.155 36.9617 107.594 39.07 101.46 39.76V40.45C107.364 41.37 112.117 43.6317 115.72 47.235C119.324 50.8383 121.125 55.6683 121.125 61.725C121.125 68.165 118.979 73.455 114.685 77.595C110.469 81.6583 104.259 83.69 96.0554 83.69C88.3121 83.69 81.9104 81.62 76.8504 77.48C71.8671 73.34 68.8771 67.475 67.8804 59.885H72.9404C73.8604 65.5583 76.3137 70.1967 80.3004 73.8C84.2871 77.3267 89.5387 79.09 96.0554 79.09C102.649 79.09 107.632 77.4417 111.005 74.145C114.455 70.8483 116.18 66.5933 116.18 61.38C116.18 55.0933 113.765 50.3783 108.935 47.235C104.182 44.0917 97.3587 42.52 88.4654 42.52H86.2804V38.035H88.5804C105.907 37.9583 114.57 32.285 114.57 21.015C114.57 16.1083 112.922 12.16 109.625 9.17C106.405 6.18 101.844 4.68499 95.9404 4.68499C90.1904 4.68499 85.3221 6.21833 81.3354 9.285C77.4254 12.275 75.0871 16.7217 74.3204 22.625H69.2604Z" fill="#E6E6E6"/>
</svg>
