<svg width="128" height="84" viewBox="0 0 128 84" fill="none" xmlns="http://www.w3.org/2000/svg">
<path d="M0.425703 41.715C0.425703 28.4517 2.34237 18.255 6.1757 11.125C10.009 3.91833 17.0624 0.314995 27.3357 0.314995C37.5324 0.314995 44.5474 3.91833 48.3807 11.125C52.214 18.255 54.1307 28.4517 54.1307 41.715C54.1307 55.1317 52.214 65.4817 48.3807 72.765C44.5474 79.9717 37.5324 83.575 27.3357 83.575C17.0624 83.575 10.009 79.9717 6.1757 72.765C2.34237 65.4817 0.425703 55.1317 0.425703 41.715ZM49.0707 41.715C49.0707 34.0483 48.4957 27.57 47.3457 22.28C46.2724 16.99 44.1257 12.8117 40.9057 9.745C37.7624 6.60166 33.239 5.03 27.3357 5.03C21.4324 5.03 16.8707 6.60166 13.6507 9.745C10.5074 12.8117 8.3607 16.99 7.2107 22.28C6.13737 27.57 5.6007 34.0483 5.6007 41.715C5.6007 49.535 6.13737 56.1283 7.2107 61.495C8.3607 66.785 10.5074 71.0017 13.6507 74.145C16.8707 77.2883 21.4324 78.86 27.3357 78.86C33.239 78.86 37.7624 77.2883 40.9057 74.145C44.1257 71.0017 46.2724 66.785 47.3457 61.495C48.4957 56.1283 49.0707 49.535 49.0707 41.715ZM65.0054 62.3V58.275L108.82 1.58H114.685V57.815H127.795V62.3H114.685V83H109.625V62.3H65.0054ZM109.74 7.78999L71.1004 57.815H109.74V7.78999Z" fill="#E6E6E6"/>
</svg>
